<svg width="648" height="454" viewBox="0 0 648 454" fill="none" xmlns="http://www.w3.org/2000/svg">
<g opacity="0.2" clip-path="url(#clip0_133_3699)">
<path d="M435.27 409.734H372.065V409H434.903V270.2H435.637V409.367C435.637 409.567 435.471 409.734 435.27 409.734Z" fill="white"/>
<path d="M225.985 409.734H103.715C103.515 409.734 103.348 409.567 103.348 409.367V270.2H104.082V409H225.985V409.734Z" fill="white"/>
<path d="M191.582 118.981L101.523 178.33V195.76H112.777V188.722L191.582 139.456L269.892 187.253L269.926 167.283L191.582 118.981Z" fill="white" fill-opacity="0.2"/>
<path d="M112.777 196.127H101.518C101.318 196.127 101.151 195.961 101.151 195.76V178.325C101.151 178.203 101.215 178.085 101.318 178.017L191.376 118.668C191.493 118.59 191.65 118.59 191.772 118.663L270.117 166.96C270.224 167.028 270.293 167.146 270.293 167.273L270.259 187.243C270.259 187.376 270.185 187.498 270.073 187.562C269.955 187.625 269.813 187.62 269.701 187.557L191.582 139.877L113.144 188.913V195.746C113.144 195.946 112.978 196.113 112.777 196.113V196.127ZM101.885 195.393H112.41V188.722C112.41 188.594 112.474 188.477 112.582 188.408L191.381 139.143C191.498 139.069 191.65 139.069 191.767 139.143L269.52 186.602L269.554 167.488L191.582 119.422L101.885 178.531V195.398V195.393Z" fill="white"/>
<path d="M200.999 112.322L101.329 178.039L101.733 178.652L201.403 112.935L200.999 112.322Z" fill="white"/>
<path d="M200.999 112.322L101.329 178.039L101.733 178.652L201.403 112.935L200.999 112.322Z" fill="white"/>
<path d="M182.134 112.313L181.746 112.936L269.849 167.772L270.236 167.148L182.134 112.313Z" fill="white"/>
<path d="M270.381 249.691H112.777C112.577 249.691 112.41 249.524 112.41 249.323V188.722H113.144V248.956H270.376V249.691H270.381Z" fill="white"/>
<path d="M222.746 199.348V238.883H157.878V199.348H222.746ZM223.48 198.614H157.144V239.617H223.48V198.614Z" fill="white"/>
<path d="M216.199 205.897V232.329H164.429V205.897H216.199ZM216.933 205.163H163.695V233.063H216.933V205.163Z" fill="white"/>
<path d="M210.577 198.981H208.62V198.002C208.62 187.929 200.423 179.73 190.353 179.73C180.283 179.73 172.087 187.929 172.087 198.002V198.981H170.13V198.002C170.13 186.847 179.202 177.772 190.353 177.772C201.505 177.772 210.577 186.847 210.577 198.002V198.981Z" fill="white"/>
<path d="M190.72 177.894H189.986V198.58H190.72V177.894Z" fill="white"/>
<path d="M204.362 183.66L189.839 198.652L190.366 199.163L204.889 184.171L204.362 183.66Z" fill="white"/>
<path d="M176.536 183.868L176.011 184.382L190.493 199.175L191.017 198.661L176.536 183.868Z" fill="white"/>
<path d="M216.654 218.682H163.974V219.417H216.654V218.682Z" fill="white"/>
<path d="M190.681 205.501H189.947V232.867H190.681V205.501Z" fill="white"/>
<path d="M501.024 249.691H270.048C269.848 249.691 269.681 249.524 269.681 249.323V138.732H270.415V248.956H500.657V231.105H501.391V249.323C501.391 249.524 501.225 249.691 501.024 249.691Z" fill="white"/>
<path d="M372.065 423.65H226.205C226.005 423.65 225.839 423.483 225.839 423.283V315.701H226.572V422.915H371.698V315.701H372.432V423.283C372.432 423.483 372.266 423.65 372.065 423.65Z" fill="white"/>
<path d="M511.187 270.567H323.374V269.832H510.6L500.79 249.691H97.2612L87.4504 269.832H274.682V270.567H86.8632C86.736 270.567 86.6186 270.503 86.55 270.395C86.4815 270.288 86.4766 270.155 86.5305 270.038L96.6984 249.162C96.762 249.035 96.8893 248.956 97.0263 248.956H501.024C501.166 248.956 501.294 249.035 501.352 249.162L511.52 270.038C511.574 270.151 511.569 270.288 511.501 270.395C511.432 270.503 511.315 270.567 511.187 270.567Z" fill="white"/>
<path d="M511.54 270.415H323.32L323.271 270.386L300.107 257.302L274.736 270.41H86.5158L96.8942 249.098H501.157L511.535 270.41L511.54 270.415ZM323.432 269.979H510.84L500.887 249.544H97.1682L87.2155 269.979H274.628L300.112 256.807L300.214 256.866L323.427 269.979H323.432Z" fill="white"/>
<path d="M561.895 317.439H435.27V316.705H561.244L539.803 281.262H435.27V280.527H540.008C540.135 280.527 540.258 280.596 540.321 280.704L562.208 316.881C562.277 316.993 562.277 317.135 562.213 317.253C562.15 317.37 562.027 317.439 561.895 317.439Z" fill="white"/>
<path d="M561.895 317.072H435.27V327.189H561.895V317.072Z" fill="white" fill-opacity="0.2"/>
<path d="M561.895 327.561H435.27C435.07 327.561 434.903 327.395 434.903 327.194V317.076C434.903 316.876 435.07 316.709 435.27 316.709H561.895C562.096 316.709 562.262 316.876 562.262 317.076V327.194C562.262 327.395 562.096 327.561 561.895 327.561ZM435.637 326.827H561.528V317.444H435.637V326.827Z" fill="white"/>
<path d="M554.6 409.817H435.27V409.083H554.233V327.194H554.967V409.45C554.967 409.651 554.8 409.817 554.6 409.817Z" fill="white"/>
<path d="M543.791 397.164H434.957V339.147H543.791V397.164ZM435.691 396.43H543.057V339.881H435.691V396.43Z" fill="white"/>
<path d="M244.795 280.939H86.8633V270.2H261.113L244.795 280.939Z" fill="white" fill-opacity="0.2"/>
<path d="M244.795 281.306H86.8632C86.6626 281.306 86.4962 281.139 86.4962 280.939V270.195C86.4962 269.994 86.6626 269.828 86.8632 269.828H261.108C261.27 269.828 261.412 269.935 261.461 270.092C261.505 270.248 261.446 270.415 261.309 270.503L244.995 281.247C244.936 281.286 244.863 281.306 244.795 281.306ZM87.2302 280.571H244.687L259.885 270.562H87.2302V280.571Z" fill="white"/>
<path d="M345.74 280.939H511.188V270.2H329.422L345.74 280.939Z" fill="white" fill-opacity="0.2"/>
<path d="M511.188 281.306H345.735C345.662 281.306 345.593 281.286 345.535 281.247L329.221 270.503C329.084 270.415 329.025 270.248 329.069 270.092C329.118 269.935 329.26 269.828 329.422 269.828H511.188C511.388 269.828 511.555 269.994 511.555 270.195V280.939C511.555 281.139 511.388 281.306 511.188 281.306ZM345.848 280.571H510.821V270.562H330.65L345.848 280.571Z" fill="white"/>
<path d="M297.557 245.887L216.013 299.622V332.005H231.637V309.034L297.557 264.424L363.478 309.034V332.005H379.102V299.622L297.557 245.887Z" fill="white" fill-opacity="0.2"/>
<path d="M297.557 245.887L379.102 299.622V332.001H363.478V309.029L297.557 264.419L231.637 309.029V332.001H216.013V299.622L297.557 245.887ZM297.557 245.153C297.415 245.153 297.274 245.192 297.151 245.276L215.607 299.01C215.401 299.147 215.279 299.377 215.279 299.622V332.001C215.279 332.407 215.607 332.735 216.013 332.735H231.637C232.043 332.735 232.371 332.407 232.371 332.001V309.421L297.557 265.31L362.744 309.421V332.001C362.744 332.407 363.072 332.735 363.478 332.735H379.102C379.508 332.735 379.836 332.407 379.836 332.001V299.622C379.836 299.377 379.713 299.142 379.508 299.01L297.964 245.276C297.841 245.197 297.699 245.153 297.557 245.153Z" fill="white"/>
<path d="M200.551 387.688H130.691C130.491 387.688 130.324 387.522 130.324 387.321V343.645C130.324 343.444 130.491 343.278 130.691 343.278H200.551C200.751 343.278 200.918 343.444 200.918 343.645V387.321C200.918 387.522 200.751 387.688 200.551 387.688ZM131.058 386.954H200.184V344.012H131.058V386.954Z" fill="white"/>
<path d="M193.5 381.79H137.732C137.532 381.79 137.365 381.623 137.365 381.423V349.543C137.365 349.343 137.532 349.176 137.732 349.176H193.5C193.7 349.176 193.867 349.343 193.867 349.543V381.423C193.867 381.623 193.7 381.79 193.5 381.79ZM138.099 381.056H193.133V349.91H138.099V381.056Z" fill="white"/>
<path d="M165.986 349.543H165.251V381.423H165.986V349.543Z" fill="white"/>
<path d="M193.5 365.113H137.732V365.848H193.5V365.113Z" fill="white"/>
<path d="M150.621 312.373L145.199 307.473L165.619 288.335L186.033 307.473L180.606 312.373L165.8 297.561L150.621 312.373Z" fill="white" fill-opacity="0.2"/>
<path d="M180.606 312.74C180.513 312.74 180.42 312.705 180.347 312.632L165.795 298.075L150.875 312.637C150.738 312.774 150.518 312.774 150.371 312.647L144.955 307.752C144.876 307.683 144.832 307.586 144.832 307.483C144.832 307.38 144.872 307.282 144.95 307.214L165.369 288.075C165.511 287.943 165.731 287.943 165.873 288.075L186.292 307.214C186.365 307.282 186.409 307.38 186.409 307.483C186.409 307.586 186.365 307.683 186.287 307.752L180.856 312.647C180.787 312.71 180.699 312.74 180.611 312.74H180.606ZM145.743 307.473L150.611 311.868L165.545 297.297C165.687 297.155 165.917 297.16 166.059 297.297L180.621 311.864L185.494 307.468L165.618 288.839L145.743 307.473Z" fill="white"/>
<path d="M180.606 331.477H150.621C150.42 331.477 150.254 331.31 150.254 331.11V312.363C150.254 312.265 150.293 312.172 150.362 312.103L165.354 297.106C165.496 296.964 165.731 296.964 165.873 297.106L180.866 312.103C180.934 312.172 180.973 312.265 180.973 312.363V331.11C180.973 331.31 180.807 331.477 180.606 331.477ZM150.988 330.743H180.239V312.514L165.614 297.884L150.988 312.514V330.743Z" fill="white"/>
<path d="M422.7 384.908H388.272C388.071 384.908 387.905 384.741 387.905 384.541V301.663C387.905 301.462 388.071 301.296 388.272 301.296H422.7C422.9 301.296 423.067 301.462 423.067 301.663V384.541C423.067 384.741 422.9 384.908 422.7 384.908ZM388.639 384.174H422.333V302.03H388.639V384.174Z" fill="white"/>
<path d="M417.435 380.165H393.541C393.341 380.165 393.174 379.998 393.174 379.798V306.406C393.174 306.205 393.341 306.039 393.541 306.039H417.435C417.635 306.039 417.802 306.205 417.802 306.406V379.798C417.802 379.998 417.635 380.165 417.435 380.165ZM393.908 379.431H417.068V306.773H393.908V379.431Z" fill="white"/>
<path d="M405.853 306.205H405.119V379.998H405.853V306.205Z" fill="white"/>
<path d="M417.18 331.08H393.292V331.815H417.18V331.08Z" fill="white"/>
<path d="M414.68 187.801H413.946V117.88H353.53V187.801H352.796V117.513C352.796 117.312 352.963 117.146 353.163 117.146H414.313C414.514 117.146 414.68 117.312 414.68 117.513V187.801Z" fill="white"/>
<path d="M403.626 187.801H402.33V130.274H365.156V187.801H363.86V129.623C363.86 129.265 364.148 128.972 364.51 128.972H402.985C403.342 128.972 403.636 129.26 403.636 129.623V187.801H403.626Z" fill="white"/>
<path d="M535.697 231.472H308.65C308.45 231.472 308.283 231.306 308.283 231.105V187.449C308.283 187.332 308.337 187.224 308.435 187.15L320.433 178.384C320.496 178.34 320.57 178.315 320.648 178.315H353.163V179.05H320.766L309.017 187.635V230.738H535.33V187.669L499.816 172.363C499.679 172.305 499.596 172.173 499.596 172.026V117.635H500.33V171.781L535.844 187.087C535.981 187.146 536.064 187.278 536.064 187.425V231.1C536.064 231.301 535.898 231.467 535.697 231.467V231.472Z" fill="white"/>
<path d="M536.015 187.434H308.875V188.169H536.015V187.434Z" fill="white"/>
<path d="M318.466 423.64H279.33C279.13 423.64 278.973 423.478 278.973 423.283V353.699C278.973 353.498 279.135 353.342 279.33 353.342H318.466C318.667 353.342 318.823 353.503 318.823 353.699V423.283C318.823 423.483 318.662 423.64 318.466 423.64ZM279.688 422.92H318.104V354.056H279.688V422.92Z" fill="white"/>
<path d="M321.309 318.114H271.555C271.017 318.114 270.577 317.674 270.577 317.135C270.577 302.872 282.173 291.271 296.432 291.271C310.691 291.271 322.287 302.872 322.287 317.135C322.287 317.674 321.847 318.114 321.309 318.114ZM272.553 316.156H320.311C319.797 303.43 309.281 293.229 296.432 293.229C283.583 293.229 273.072 303.425 272.553 316.156Z" fill="white"/>
<path d="M296.799 291.448H296.065V317.972H296.799V291.448Z" fill="white"/>
<path d="M314.538 298.961L296.597 317.618L297.126 318.127L315.067 299.47L314.538 298.961Z" fill="white"/>
<path d="M278.57 299.224L278.038 299.729L295.512 318.143L296.044 317.637L278.57 299.224Z" fill="white"/>
<path d="M499.958 138.272C499.826 138.272 499.693 138.198 499.63 138.071C499.537 137.89 499.61 137.67 499.791 137.577L511.403 131.713C511.584 131.62 511.804 131.693 511.897 131.874C511.99 132.055 511.917 132.275 511.735 132.368L500.124 138.232C500.07 138.257 500.016 138.272 499.958 138.272Z" fill="white"/>
<path d="M259.281 147.464L258.76 147.981L269.783 159.085L270.303 158.567L259.281 147.464Z" fill="white"/>
<path d="M389.788 38.1545L385.096 35.0708L380.403 38.1545L249.208 130.107L259.063 147.381L385.096 60.0242L511.129 147.381L520.983 130.107L389.788 38.1545Z" fill="white" fill-opacity="0.2"/>
<path d="M385.096 35.0708L389.788 38.1594L520.984 130.112L511.129 147.386L385.096 60.0242L259.063 147.381L249.208 130.107L380.403 38.1545L385.096 35.0659V35.0708ZM385.096 34.3366C384.954 34.3366 384.817 34.3758 384.695 34.459L380.002 37.5476L248.792 129.51C248.484 129.725 248.386 130.146 248.577 130.474L258.432 147.748C258.535 147.929 258.706 148.056 258.906 148.1C258.96 148.11 259.014 148.12 259.068 148.12C259.215 148.12 259.361 148.076 259.484 147.988L385.096 60.9151L510.713 147.983C510.835 148.071 510.982 148.115 511.129 148.115C511.183 148.115 511.236 148.11 511.29 148.095C511.491 148.051 511.662 147.924 511.765 147.743L521.62 130.469C521.806 130.141 521.713 129.72 521.404 129.505L390.209 37.5573L385.497 34.459C385.375 34.3807 385.233 34.3366 385.096 34.3366Z" fill="white"/>
<path d="M390.996 29.4551L248.994 129.807L249.417 130.407L391.419 30.0548L390.996 29.4551Z" fill="white"/>
<path d="M390.996 29.4551L248.994 129.807L249.417 130.407L391.419 30.0548L390.996 29.4551Z" fill="white"/>
<path d="M379.24 29.4063L378.818 30.0071L521.631 130.336L522.053 129.736L379.24 29.4063Z" fill="white"/>
<path d="M373.403 8.43745L372.98 9.03815L518.189 111.126L518.611 110.525L373.403 8.43745Z" fill="white"/>
<path d="M519.129 108.663L520.979 112.648L516.604 112.256L519.129 108.663Z" fill="white"/>
<path d="M374.967 7.31272L370.593 6.92114L372.442 10.9104L374.967 7.31272Z" fill="white"/>
<path d="M397.196 8.37231L246.216 114.675L246.639 115.275L397.618 8.97271L397.196 8.37231Z" fill="white"/>
<path d="M395.67 7.31272L400.04 6.92114L398.195 10.9104L395.67 7.31272Z" fill="white"/>
<path d="M245.666 112.77L243.816 116.754L248.19 116.363L245.666 112.77Z" fill="white"/>
<path d="M90.2396 386.396H89.5055V426.381H90.2396V386.396Z" fill="white"/>
<path d="M87.6902 387.037L89.8872 383.234L92.0842 387.037H87.6902Z" fill="white"/>
<path d="M87.6902 425.74L89.8872 429.543L92.0842 425.74H87.6902Z" fill="white"/>
<path d="M646.16 115.687H645.426V197.018H646.16V115.687Z" fill="white"/>
<path d="M643.611 116.328L645.808 112.525L648 116.328H643.611Z" fill="white"/>
<path d="M643.611 196.377L645.808 200.18L648 196.377H643.611Z" fill="white"/>
<path d="M595.359 433.782H442.796V434.516H595.359V433.782Z" fill="white"/>
<path d="M443.437 436.332L439.635 434.134L443.437 431.937V436.332Z" fill="white"/>
<path d="M594.718 436.332L598.52 434.134L594.718 431.937V436.332Z" fill="white"/>
<path d="M575.767 287.551H575.033V450.639H575.767V287.551Z" fill="white"/>
<path d="M573.218 288.193L575.415 284.389L577.607 288.193H573.218Z" fill="white"/>
<path d="M573.218 449.998L575.415 453.801L577.607 449.998H573.218Z" fill="white"/>
<path d="M575.767 240.273H575.033V281.232H575.767V240.273Z" fill="white"/>
<path d="M573.218 240.914L575.415 237.111L577.607 240.914H573.218Z" fill="white"/>
<path d="M573.218 280.586L575.415 284.389L577.607 280.586H573.218Z" fill="white"/>
<path d="M510.932 147.521L499.598 159.616L500.133 160.118L511.468 148.023L510.932 147.521Z" fill="white"/>
<path d="M213.176 85.6127L95.2305 163.172L95.6337 163.786L213.579 86.2263L213.176 85.6127Z" fill="white"/>
<path d="M211.639 84.4539L216.023 84.2042L214.051 88.1249L211.639 84.4539Z" fill="white"/>
<path d="M94.7657 161.311L92.7986 165.237L97.178 164.982L94.7657 161.311Z" fill="white"/>
<path d="M230.009 74.5293L220.687 80.6597L221.09 81.2732L230.413 75.1428L230.009 74.5293Z" fill="white"/>
<path d="M228.481 73.3771L232.865 73.1226L230.893 77.0481L228.481 73.3771Z" fill="white"/>
<path d="M220.231 78.8005L218.259 82.7212L222.643 82.4715L220.231 78.8005Z" fill="white"/>
<path d="M191.34 87.7276L191.124 111.584L191.858 111.59L192.074 87.7342L191.34 87.7276Z" fill="white"/>
<path d="M189.526 88.3599L191.753 84.5762L193.916 88.399L189.526 88.3599Z" fill="white"/>
<path d="M189.331 110.93L191.493 114.752L193.72 110.969L189.331 110.93Z" fill="white"/>
<path d="M191.416 68.247L191.367 80.2537L192.102 80.2566L192.15 68.2499L191.416 68.247Z" fill="white"/>
<path d="M189.575 68.8788L191.782 65.0805L193.969 68.8935L189.575 68.8788Z" fill="white"/>
<path d="M189.536 79.6032L191.719 83.4113L193.93 79.6179L189.536 79.6032Z" fill="white"/>
<path d="M100.021 241.066H99.2869V206.793C99.2869 206.592 99.4533 206.426 99.6539 206.426H108.109V207.16H100.021V241.066Z" fill="white"/>
<path d="M97.4667 240.42L99.6637 244.223L101.861 240.42H97.4667Z" fill="white"/>
<path d="M635.904 289.318H611.086V288.584H635.537V26.2603H611.086V25.5261H635.904C636.105 25.5261 636.271 25.6925 636.271 25.8932V288.951C636.271 289.152 636.105 289.318 635.904 289.318Z" fill="white"/>
<path d="M323.085 301.007H322.351V324.027H323.085V301.007Z" fill="white"/>
<path d="M321.372 323.63L322.723 325.98L324.078 323.63H321.372Z" fill="white"/>
<path d="M328.164 298.065H324.054V298.8H328.164V298.065Z" fill="white"/>
<path d="M327.768 299.778L330.112 298.423L327.768 297.067V299.778Z" fill="white"/>
<path d="M270.415 301.007H269.681V324.027H270.415V301.007Z" fill="white"/>
<path d="M268.698 323.63L270.053 325.98L271.408 323.63H268.698Z" fill="white"/>
<path d="M268.712 298.065H264.602V298.799H268.712V298.065Z" fill="white"/>
<path d="M264.998 297.086L262.65 298.437L264.998 299.793V297.086Z" fill="white"/>
<path d="M572.171 316.704H565.546V317.439H572.171V316.704Z" fill="white"/>
<path d="M571.53 319.259L575.332 317.062L571.53 314.864V319.259Z" fill="white"/>
<path d="M619.37 316.704H578.493V317.439H619.37V316.704Z" fill="white"/>
<path d="M579.134 314.889L575.332 317.086L579.134 319.284V314.889Z" fill="white"/>
<path d="M344.346 170.21H324.47V169.475H343.979V123.005H344.713V169.843C344.713 170.043 344.546 170.21 344.346 170.21Z" fill="white"/>
<path d="M342.163 123.646L344.355 119.843L346.552 123.646H342.163Z" fill="white"/>
<path d="M325.111 167.655L321.309 169.852L325.111 172.05V167.655Z" fill="white"/>
<path d="M413.804 394.727H413.07V406.141H413.804V394.727Z" fill="white"/>
<path d="M411.984 395.152L413.447 392.617L414.91 395.152H411.984Z" fill="white"/>
<path d="M413.804 412.646H413.07V424.061H413.804V412.646Z" fill="white"/>
<path d="M411.984 413.072L413.447 410.537L414.91 413.072H411.984Z" fill="white"/>
<path d="M411.984 405.715L413.447 408.251L414.91 405.715H411.984Z" fill="white"/>
<path d="M483.556 413.674H482.822V431.604H483.556V413.674Z" fill="white"/>
<path d="M481.731 414.105L483.194 411.565L484.657 414.105H481.731Z" fill="white"/>
<path d="M481.731 431.173L483.194 433.713L484.657 431.173H481.731Z" fill="white"/>
<path d="M483.556 436.944H482.822V441.173H483.556V436.944Z" fill="white"/>
<path d="M481.731 437.375L483.194 434.839L484.657 437.375H481.731Z" fill="white"/>
<path d="M481.731 440.747L483.194 443.283L484.657 440.747H481.731Z" fill="white"/>
<path d="M115.919 412.734H115.185V426.983H115.919V412.734Z" fill="white"/>
<path d="M114.094 413.165L115.562 410.625L117.025 413.165H114.094Z" fill="white"/>
<path d="M114.094 426.552L115.562 429.093L117.025 426.552H114.094Z" fill="white"/>
<path d="M115.919 400.855H115.185V405.926H115.919V400.855Z" fill="white"/>
<path d="M114.094 401.286L115.562 398.745L117.025 401.286H114.094Z" fill="white"/>
<path d="M114.094 405.495L115.562 408.031L117.025 405.495H114.094Z" fill="white"/>
<path d="M145.077 412.734H144.343V426.983H145.077V412.734Z" fill="white"/>
<path d="M143.257 413.165L144.72 410.625L146.183 413.165H143.257Z" fill="white"/>
<path d="M143.257 426.552L144.72 429.093L146.183 426.552H143.257Z" fill="white"/>
<path d="M145.077 400.855H144.343V405.926H145.077V400.855Z" fill="white"/>
<path d="M143.257 401.286L144.72 398.745L146.183 401.286H143.257Z" fill="white"/>
<path d="M143.257 405.495L144.72 408.031L146.183 405.495H143.257Z" fill="white"/>
<path d="M174.461 412.734H173.726V426.983H174.461V412.734Z" fill="white"/>
<path d="M172.64 413.165L174.103 410.625L175.566 413.165H172.64Z" fill="white"/>
<path d="M172.64 426.552L174.103 429.093L175.566 426.552H172.64Z" fill="white"/>
<path d="M174.461 400.855H173.726V405.926H174.461V400.855Z" fill="white"/>
<path d="M172.64 401.286L174.103 398.745L175.566 401.286H172.64Z" fill="white"/>
<path d="M172.64 405.495L174.103 408.031L175.566 405.495H172.64Z" fill="white"/>
<path d="M203.819 412.734H203.085V426.983H203.819V412.734Z" fill="white"/>
<path d="M201.999 413.165L203.462 410.625L204.925 413.165H201.999Z" fill="white"/>
<path d="M201.999 426.552L203.462 429.093L204.925 426.552H201.999Z" fill="white"/>
<path d="M203.819 400.855H203.085V405.926H203.819V400.855Z" fill="white"/>
<path d="M201.999 401.286L203.462 398.745L204.925 401.286H201.999Z" fill="white"/>
<path d="M201.999 405.495L203.462 408.031L204.925 405.495H201.999Z" fill="white"/>
<path d="M416.833 87.3418L415.35 86.0643C416.05 85.2517 416.725 84.4001 417.361 83.5337L418.942 84.6888C418.281 85.5993 417.572 86.4901 416.838 87.3467L416.833 87.3418Z" fill="white"/>
<path d="M385.096 101.904C383.829 101.904 382.551 101.845 381.299 101.732L381.475 99.7842C383.559 99.9702 385.708 99.9947 387.797 99.8576L387.929 101.811C386.994 101.874 386.04 101.904 385.096 101.904ZM394.486 100.846L394.05 98.9374C396.101 98.4675 398.126 97.8312 400.079 97.0382L400.813 98.8542C398.767 99.6814 396.639 100.352 394.491 100.846H394.486ZM374.762 100.616C372.623 100.073 370.509 99.3535 368.484 98.4773L369.262 96.6809C371.194 97.5179 373.206 98.2032 375.241 98.722L374.762 100.621V100.616ZM406.733 95.8831L405.72 94.2091C407.521 93.1224 409.248 91.8792 410.853 90.5184L412.116 92.0113C410.428 93.4357 408.617 94.7377 406.733 95.8831ZM362.627 95.3691C360.767 94.1846 358.986 92.8386 357.332 91.375L358.629 89.9115C360.204 91.3065 361.902 92.5889 363.674 93.7196L362.622 95.3691H362.627Z" fill="white"/>
<path d="M352.723 86.5831C352.008 85.7118 351.323 84.8014 350.677 83.8763L352.287 82.7603C352.899 83.6414 353.555 84.5077 354.235 85.3398L352.723 86.5831Z" fill="white"/>
<path d="M97.8582 300.547H97.1242V289.695H81.3242V288.961H97.4912C97.6918 288.961 97.8582 289.127 97.8582 289.328V300.547Z" fill="white"/>
<path d="M81.9652 287.145L78.1632 289.338L81.9652 291.536V287.145Z" fill="white"/>
<path d="M209.231 152.863L208.453 152.271C208.84 151.761 209.207 151.228 209.545 150.69L210.377 151.208C210.024 151.771 209.638 152.329 209.236 152.863H209.231Z" fill="white"/>
<path d="M191.582 161.624C190.989 161.624 190.393 161.6 189.8 161.556L189.879 160.582C191.053 160.675 192.247 160.67 193.412 160.572L193.495 161.546C192.859 161.6 192.213 161.629 191.577 161.629L191.582 161.624ZM186.155 160.954C184.961 160.655 183.782 160.249 182.656 159.75L183.053 158.854C184.129 159.329 185.255 159.715 186.395 160.004L186.155 160.954ZM197.145 160.92L196.9 159.97C198.04 159.676 199.161 159.28 200.233 158.8L200.634 159.696C199.508 160.2 198.339 160.611 197.145 160.92ZM179.412 157.983C178.385 157.307 177.406 156.539 176.506 155.697L177.171 154.982C178.032 155.785 178.967 156.519 179.951 157.165L179.412 157.983ZM203.873 157.909L203.33 157.097C204.309 156.446 205.238 155.707 206.095 154.899L206.765 155.614C205.87 156.456 204.896 157.234 203.873 157.914V157.909Z" fill="white"/>
<path d="M174.001 152.961C173.595 152.432 173.208 151.879 172.851 151.311L173.678 150.787C174.02 151.326 174.392 151.854 174.779 152.359L174.001 152.956V152.961Z" fill="white"/>
<path d="M71.0632 276.073H68.3279V275.339H71.0632V276.073ZM65.5976 276.073H62.8623V275.339H65.5976V276.073ZM60.1319 276.073H57.3966V275.339H60.1319V276.073ZM54.6663 276.073H51.931V275.339H54.6663V276.073ZM49.2006 276.073H46.4653V275.339H49.2006V276.073ZM44.4934 275.315H43.7594V272.578H44.4934V275.315ZM44.4934 269.847H43.7594V267.111H44.4934V269.847ZM44.4934 264.38H43.7594V261.643H44.4934V264.38ZM44.4934 258.912H43.7594V256.176H44.4934V258.912ZM44.4934 253.445H43.7594V250.709H44.4934V253.445ZM44.4934 247.977H43.7594V245.241H44.4934V247.977ZM44.4934 242.51H43.7594V239.774H44.4934V242.51ZM44.4934 237.043H43.7594V234.306H44.4934V237.043ZM44.4934 231.575H43.7594V228.839H44.4934V231.575ZM44.4934 226.108H43.7594V223.372H44.4934V226.108ZM44.4934 220.64H43.7594V217.904H44.4934V220.64ZM44.4934 215.173H43.7594V212.437H44.4934V215.173ZM44.4934 209.705H43.7594V206.969H44.4934V209.705ZM44.4934 204.238H43.7594V203.019H42.9765V202.285H44.1264C44.327 202.285 44.4934 202.451 44.4934 202.652V204.238ZM40.2462 203.019H39.4241V202.285H40.2462V203.019Z" fill="white"/>
<path d="M70.4222 273.518L74.2242 275.716L70.4222 277.914V273.518Z" fill="white"/>
<path d="M39.4143 207.841H13.1528C12.9522 207.841 12.7858 207.674 12.7858 207.473V195.604C12.7858 195.403 12.9522 195.237 13.1528 195.237H39.4143C39.6149 195.237 39.7813 195.403 39.7813 195.604V207.473C39.7813 207.674 39.6149 207.841 39.4143 207.841ZM13.5198 207.106H39.0473V195.971H13.5198V207.106Z" fill="white"/>
<path d="M33.0532 261.007H6.7917C6.59108 261.007 6.42471 260.841 6.42471 260.64V248.77C6.42471 248.57 6.59108 248.403 6.7917 248.403H33.0532C33.2539 248.403 33.4202 248.57 33.4202 248.77V260.64C33.4202 260.841 33.2539 261.007 33.0532 261.007ZM7.15869 260.273H32.6863V249.137H7.15869V260.273Z" fill="white"/>
<path d="M87.5287 319.666H83.6631V318.932H87.5287V319.666ZM79.7975 319.666H75.9319V318.932H79.7975V319.666ZM72.0663 319.666H68.2007V318.932H72.0663V319.666ZM64.3352 319.666H60.4696V318.932H64.3352V319.666ZM56.604 319.666H52.7384V318.932H56.604V319.666ZM48.8728 319.666H45.0072V318.932H48.8728V319.666ZM41.1416 319.666H37.276V318.932H41.1416V319.666ZM33.4104 319.666H29.5449V318.932H33.4104V319.666ZM26.2664 319.078H25.5325V315.212H26.2664V319.078ZM26.2664 311.345H25.5325V307.478H26.2664V311.345ZM26.2664 303.611H25.5325V299.744H26.2664V303.611ZM26.2664 295.877H25.5325V292.011H26.2664V295.877ZM26.2664 288.144H25.5325V284.277H26.2664V288.144ZM26.2664 280.41H25.5325V276.543H26.2664V280.41ZM26.2664 272.676H25.5325V268.809H26.2664V272.676ZM26.2664 264.943H25.5325V261.076H26.2664V264.943Z" fill="white"/>
<path d="M89.574 321.482L93.376 319.289L89.574 317.091V321.482Z" fill="white"/>
<path d="M26.2666 241.575H25.5325V238.408H26.2666V241.575ZM26.2666 234.541H25.5325V230.674H26.2666V234.541ZM26.2666 226.808H25.5325V222.941H26.2666V226.808ZM26.2666 219.074H25.5325V215.207H26.2666V219.074ZM26.2666 211.34H25.5325V207.473H26.2666V211.34Z" fill="white"/>
<path d="M23.7171 240.934L25.9092 244.737L28.1063 240.934H23.7171Z" fill="white"/>
<path d="M395.303 161.375H372.266C372.065 161.375 371.899 161.208 371.899 161.008V137.537C371.899 137.337 372.065 137.17 372.266 137.17H377.487C378.823 135.364 380.942 134.292 383.188 134.292C385.433 134.292 387.552 135.364 388.888 137.17H395.308C395.508 137.17 395.675 137.337 395.675 137.537V161.008C395.675 161.208 395.508 161.375 395.308 161.375H395.303ZM372.633 160.641H394.936V137.904H388.697C388.575 137.904 388.467 137.846 388.394 137.748C387.205 136.044 385.257 135.026 383.183 135.026C381.108 135.026 379.165 136.044 377.971 137.748C377.903 137.846 377.79 137.904 377.668 137.904H372.628V160.641H372.633Z" fill="white"/>
<path d="M395.293 183.019H372.266C372.065 183.019 371.899 182.853 371.899 182.652V167.067C371.899 166.867 372.065 166.7 372.266 166.7H395.293C395.494 166.7 395.66 166.867 395.66 167.067V182.652C395.66 182.853 395.494 183.019 395.293 183.019ZM372.633 182.285H394.926V167.434H372.633V182.285Z" fill="white"/>
<path d="M216.38 164.899H215.646V199.02H216.38V164.899Z" fill="white"/>
<path d="M165.374 164.899H164.64V199.02H165.374V164.899Z" fill="white"/>
<path d="M221.376 168.976H159.619V169.71H221.376V168.976Z" fill="white"/>
<path d="M160.045 170.802L157.511 169.338L160.045 167.87V170.802Z" fill="white"/>
<path d="M220.945 170.802L223.48 169.338L220.945 167.87V170.802Z" fill="white"/>
<path d="M461.786 38.7224H404.155V39.4566H461.786V38.7224Z" fill="white"/>
<path d="M404.801 41.2774L400.994 39.0796L404.801 36.8819V41.2774Z" fill="white"/>
<path d="M461.145 41.2774L464.947 39.0796L461.145 36.8819V41.2774Z" fill="white"/>
<path d="M366.58 38.7223H305.778V39.4565H366.58V38.7223Z" fill="white"/>
<path d="M365.939 36.9064L369.741 39.1041L365.939 41.3018V36.9064Z" fill="white"/>
<path d="M306.419 36.9064L302.617 39.1041L306.419 41.3018V36.9064Z" fill="white"/>
<path d="M280.608 187.934H279.296V188.668H280.608V187.934Z" fill="white"/>
<path d="M294.25 188.668H291.974V187.934H294.25V188.668ZM289.704 188.668H287.429V187.934H289.704V188.668ZM285.158 188.668H282.883V187.934H285.158V188.668Z" fill="white"/>
<path d="M297.832 187.934H296.52V188.668H297.832V187.934Z" fill="white"/>
<path d="M279.722 189.754L277.187 188.291L279.722 186.827V189.754Z" fill="white"/>
<path d="M297.401 189.754L299.94 188.291L297.401 186.827V189.754Z" fill="white"/>
<path d="M288.931 137.077H288.197V138.389H288.931V137.077Z" fill="white"/>
<path d="M288.931 235.555H288.197V233H288.931V235.555ZM288.931 230.44H288.197V227.885H288.931V230.44ZM288.931 225.325H288.197V222.77H288.931V225.325ZM288.931 220.21H288.197V217.655H288.931V220.21ZM288.931 215.095H288.197V212.54H288.931V215.095ZM288.931 209.98H288.197V207.424H288.931V209.98ZM288.931 204.865H288.197V202.31H288.931V204.865ZM288.931 199.75H288.197V197.194H288.931V199.75ZM288.931 194.635H288.197V192.079H288.931V194.635ZM288.931 189.52H288.197V186.964H288.931V189.52ZM288.931 184.405H288.197V181.849H288.931V184.405ZM288.931 179.29H288.197V176.734H288.931V179.29ZM288.931 174.175H288.197V171.619H288.931V174.175ZM288.931 169.06H288.197V166.504H288.931V169.06ZM288.931 163.945H288.197V161.389H288.931V163.945ZM288.931 158.83H288.197V156.274H288.931V158.83ZM288.931 153.715H288.197V151.159H288.931V153.715ZM288.931 148.599H288.197V146.044H288.931V148.599ZM288.931 143.484H288.197V140.929H288.931V143.484Z" fill="white"/>
<path d="M288.931 238.115H288.197V239.426H288.931V238.115Z" fill="white"/>
<path d="M287.106 137.508L288.574 134.973L290.037 137.508H287.106Z" fill="white"/>
<path d="M287.106 238.996L288.574 241.531L290.037 238.996H287.106Z" fill="white"/>
<path d="M596.466 336.616H594.498V337.35H596.466V336.616Z" fill="white"/>
<path d="M610.039 337.35H606.643V336.616H610.039V337.35ZM603.252 337.35H599.856V336.616H603.252V337.35Z" fill="white"/>
<path d="M615.764 338.951H615.03V337.35H613.43V336.616H615.397C615.598 336.616 615.764 336.783 615.764 336.983V338.951Z" fill="white"/>
<path d="M615.764 409.445H615.03V405.529H615.764V409.445ZM615.764 401.614H615.03V397.698H615.764V401.614ZM615.764 393.782H615.03V389.866H615.764V393.782ZM615.764 385.95H615.03V382.035H615.764V385.95ZM615.764 378.119H615.03V374.203H615.764V378.119ZM615.764 370.287H615.03V366.371H615.764V370.287ZM615.764 362.456H615.03V358.54H615.764V362.456ZM615.764 354.624H615.03V350.708H615.764V354.624ZM615.764 346.792H615.03V342.877H615.764V346.792Z" fill="white"/>
<path d="M615.397 415.691H613.43V414.957H615.03V413.356H615.764V415.324C615.764 415.524 615.598 415.691 615.397 415.691Z" fill="white"/>
<path d="M610.039 415.691H606.643V414.957H610.039V415.691ZM603.252 415.691H599.856V414.957H603.252V415.691Z" fill="white"/>
<path d="M596.466 414.957H594.498V415.691H596.466V414.957Z" fill="white"/>
<path d="M484.843 145.849L482.753 144.268L483.194 143.68L485.283 145.261L484.843 145.849ZM480.664 142.692L478.575 141.111L479.015 140.523L481.104 142.104L480.664 142.692ZM476.485 139.534L474.396 137.953L474.836 137.366L476.926 138.947L476.485 139.534ZM472.307 136.377L470.217 134.796L470.658 134.209L472.747 135.79L472.307 136.377ZM468.128 133.22L466.038 131.639L466.479 131.052L468.568 132.633L468.128 133.22ZM463.944 130.063L461.855 128.482L462.295 127.895L464.385 129.476L463.944 130.063ZM459.76 126.906L457.671 125.325L458.111 124.738L460.201 126.319L459.76 126.906ZM455.582 123.749L453.492 122.168L453.933 121.58L456.022 123.161L455.582 123.749ZM451.403 120.592L449.314 119.011L449.754 118.423L451.843 120.004L451.403 120.592ZM447.273 118.012H444.655V117.278H447.273V118.012ZM442.033 118.012H439.415V117.278H442.033V118.012ZM436.792 118.012H434.174V117.278H436.792V118.012Z" fill="white"/>
<path d="M485.596 144.135L486.741 146.832L483.835 146.475L485.596 144.135Z" fill="white"/>
<path d="M433.465 116.177L430.93 117.64L433.465 119.104V116.177Z" fill="white"/>
<path d="M596.01 231.59H542.778C542.577 231.59 542.411 231.423 542.411 231.223V191.698H543.145V230.856H596.01V231.59Z" fill="white"/>
<path d="M595.58 229.769L598.114 231.233L595.58 232.696V229.769Z" fill="white"/>
<path d="M544.231 192.128L542.768 189.588L541.305 192.128H544.231Z" fill="white"/>
<path d="M575.89 231.223H573.57C573.57 230.102 573.511 228.976 573.389 227.875L575.694 227.625C575.821 228.81 575.89 230.023 575.89 231.228V231.223Z" fill="white"/>
<path d="M572.181 222.05C571.593 220.161 570.815 218.32 569.871 216.573L571.912 215.467C572.929 217.341 573.761 219.324 574.397 221.355L572.181 222.045V222.05ZM566.549 211.644C565.286 210.117 563.877 208.702 562.345 207.439L563.818 205.648C565.462 207.004 566.979 208.521 568.335 210.166L566.544 211.639L566.549 211.644ZM557.418 204.116C555.676 203.171 553.831 202.393 551.947 201.805L552.637 199.588C554.668 200.219 556.65 201.056 558.524 202.075L557.418 204.116Z" fill="white"/>
<path d="M546.125 200.601C545.024 200.484 543.898 200.42 542.778 200.42V198.1C543.981 198.1 545.195 198.164 546.379 198.296L546.129 200.601H546.125Z" fill="white"/>
<path d="M513.796 222.26H513.062V223.626H513.796V222.26Z" fill="white"/>
<path d="M513.796 219.627H513.062V216.994H513.796V219.627ZM513.796 214.355H513.062V211.722H513.796V214.355ZM513.796 209.084H513.062V206.45H513.796V209.084ZM513.796 203.812H513.062V201.179H513.796V203.812Z" fill="white"/>
<path d="M513.796 197.185H513.062V198.55H513.796V197.185Z" fill="white"/>
<path d="M514.882 223.2L513.419 225.736L511.956 223.2H514.882Z" fill="white"/>
<path d="M514.882 197.611L513.419 195.075L511.956 197.611H514.882Z" fill="white"/>
<path d="M403.46 222.26H402.726V223.626H403.46V222.26Z" fill="white"/>
<path d="M403.46 219.627H402.726V216.994H403.46V219.627ZM403.46 214.355H402.726V211.722H403.46V214.355ZM403.46 209.084H402.726V206.45H403.46V209.084ZM403.46 203.812H402.726V201.179H403.46V203.812Z" fill="white"/>
<path d="M403.46 197.185H402.726V198.55H403.46V197.185Z" fill="white"/>
<path d="M404.551 223.2L403.083 225.736L401.62 223.2H404.551Z" fill="white"/>
<path d="M404.551 197.611L403.083 195.075L401.62 197.611H404.551Z" fill="white"/>
<path d="M363.512 222.26H362.778V223.626H363.512V222.26Z" fill="white"/>
<path d="M363.512 219.627H362.778V216.994H363.512V219.627ZM363.512 214.355H362.778V211.722H363.512V214.355ZM363.512 209.084H362.778V206.45H363.512V209.084ZM363.512 203.812H362.778V201.179H363.512V203.812Z" fill="white"/>
<path d="M363.512 197.185H362.778V198.55H363.512V197.185Z" fill="white"/>
<path d="M364.598 223.2L363.135 225.736L361.672 223.2H364.598Z" fill="white"/>
<path d="M364.598 197.611L363.135 195.075L361.672 197.611H364.598Z" fill="white"/>
<path d="M330.41 222.26H329.676V223.626H330.41V222.26Z" fill="white"/>
<path d="M330.41 219.627H329.676V216.994H330.41V219.627ZM330.41 214.355H329.676V211.722H330.41V214.355ZM330.41 209.084H329.676V206.45H330.41V209.084ZM330.41 203.812H329.676V201.179H330.41V203.812Z" fill="white"/>
<path d="M330.41 197.185H329.676V198.55H330.41V197.185Z" fill="white"/>
<path d="M331.496 223.2L330.033 225.736L328.57 223.2H331.496Z" fill="white"/>
<path d="M331.496 197.611L330.033 195.075L328.57 197.611H331.496Z" fill="white"/>
<path d="M526.484 129.662H525.26V130.396H526.484V129.662Z" fill="white"/>
<path d="M631.696 130.396H629.225V129.662H631.696V130.396ZM626.754 130.396H624.283V129.662H626.754V130.396ZM620.833 130.396H618.362V129.662H620.833V130.396ZM615.402 130.396H612.931V129.662H615.402V130.396ZM610.46 130.396H607.989V129.662H610.46V130.396ZM605.518 130.396H603.047V129.662H605.518V130.396ZM600.576 130.396H598.104V129.662H600.576V130.396ZM595.633 130.396H593.162V129.662H595.633V130.396ZM590.691 130.396H588.22V129.662H590.691V130.396ZM585.749 130.396H583.278V129.662H585.749V130.396ZM580.807 130.396H578.336V129.662H580.807V130.396ZM575.865 130.396H573.394V129.662H575.865V130.396ZM570.923 130.396H568.452V129.662H570.923V130.396ZM565.981 130.396H563.51V129.662H565.981V130.396ZM561.039 130.396H558.568V129.662H561.039V130.396ZM556.097 130.396H553.626V129.662H556.097V130.396ZM551.155 130.396H548.684V129.662H551.155V130.396ZM546.213 130.396H543.742V129.662H546.213V130.396ZM541.271 130.396H538.8V129.662H541.271V130.396ZM536.328 130.396H533.857V129.662H536.328V130.396ZM531.386 130.396H528.915V129.662H531.386V130.396Z" fill="white"/>
<path d="M635.386 129.662H634.162V130.396H635.386V129.662Z" fill="white"/>
<path d="M526.484 34.7037H525.26V35.4379H526.484V34.7037Z" fill="white"/>
<path d="M631.696 35.4379H629.225V34.7037H631.696V35.4379ZM626.754 35.4379H624.283V34.7037H626.754V35.4379ZM620.344 35.4379H617.873V34.7037H620.344V35.4379ZM615.402 35.4379H612.931V34.7037H615.402V35.4379ZM610.46 35.4379H607.989V34.7037H610.46V35.4379ZM605.518 35.4379H603.047V34.7037H605.518V35.4379ZM600.576 35.4379H598.104V34.7037H600.576V35.4379ZM595.633 35.4379H593.162V34.7037H595.633V35.4379ZM590.691 35.4379H588.22V34.7037H590.691V35.4379ZM585.749 35.4379H583.278V34.7037H585.749V35.4379ZM580.807 35.4379H578.336V34.7037H580.807V35.4379ZM575.865 35.4379H573.394V34.7037H575.865V35.4379ZM570.923 35.4379H568.452V34.7037H570.923V35.4379ZM565.981 35.4379H563.51V34.7037H565.981V35.4379ZM561.039 35.4379H558.568V34.7037H561.039V35.4379ZM556.097 35.4379H553.626V34.7037H556.097V35.4379ZM551.155 35.4379H548.684V34.7037H551.155V35.4379ZM546.213 35.4379H543.742V34.7037H546.213V35.4379ZM541.271 35.4379H538.8V34.7037H541.271V35.4379ZM536.328 35.4379H533.857V34.7037H536.328V35.4379ZM531.386 35.4379H528.915V34.7037H531.386V35.4379Z" fill="white"/>
<path d="M635.386 34.7037H634.162V35.4379H635.386V34.7037Z" fill="white"/>
<path d="M526.484 57.7041H525.26V58.4383H526.484V57.7041Z" fill="white"/>
<path d="M631.696 58.4383H629.225V57.7041H631.696V58.4383ZM626.754 58.4383H624.283V57.7041H626.754V58.4383ZM620.344 58.4383H617.873V57.7041H620.344V58.4383ZM615.402 58.4383H612.931V57.7041H615.402V58.4383ZM610.46 58.4383H607.989V57.7041H610.46V58.4383ZM605.518 58.4383H603.047V57.7041H605.518V58.4383ZM600.576 58.4383H598.104V57.7041H600.576V58.4383ZM595.633 58.4383H593.162V57.7041H595.633V58.4383ZM590.691 58.4383H588.22V57.7041H590.691V58.4383ZM585.749 58.4383H583.278V57.7041H585.749V58.4383ZM580.807 58.4383H578.336V57.7041H580.807V58.4383ZM575.865 58.4383H573.394V57.7041H575.865V58.4383ZM570.923 58.4383H568.452V57.7041H570.923V58.4383ZM565.981 58.4383H563.51V57.7041H565.981V58.4383ZM561.039 58.4383H558.568V57.7041H561.039V58.4383ZM556.097 58.4383H553.626V57.7041H556.097V58.4383ZM551.155 58.4383H548.684V57.7041H551.155V58.4383ZM546.213 58.4383H543.742V57.7041H546.213V58.4383ZM541.271 58.4383H538.8V57.7041H541.271V58.4383ZM536.328 58.4383H533.857V57.7041H536.328V58.4383ZM531.386 58.4383H528.915V57.7041H531.386V58.4383Z" fill="white"/>
<path d="M635.386 57.7041H634.162V58.4383H635.386V57.7041Z" fill="white"/>
<path d="M526.484 171.267H525.26V172.001H526.484V171.267Z" fill="white"/>
<path d="M631.696 172.001H629.225V171.267H631.696V172.001ZM626.754 172.001H624.283V171.267H626.754V172.001ZM620.344 172.001H617.873V171.267H620.344V172.001ZM615.402 172.001H612.931V171.267H615.402V172.001ZM610.46 172.001H607.989V171.267H610.46V172.001ZM605.518 172.001H603.047V171.267H605.518V172.001ZM600.576 172.001H598.104V171.267H600.576V172.001ZM595.633 172.001H593.162V171.267H595.633V172.001ZM590.691 172.001H588.22V171.267H590.691V172.001ZM585.749 172.001H583.278V171.267H585.749V172.001ZM580.807 172.001H578.336V171.267H580.807V172.001ZM575.865 172.001H573.394V171.267H575.865V172.001ZM570.923 172.001H568.452V171.267H570.923V172.001ZM565.981 172.001H563.51V171.267H565.981V172.001ZM561.039 172.001H558.568V171.267H561.039V172.001ZM556.097 172.001H553.626V171.267H556.097V172.001ZM551.155 172.001H548.684V171.267H551.155V172.001ZM546.213 172.001H543.742V171.267H546.213V172.001ZM541.271 172.001H538.8V171.267H541.271V172.001ZM536.328 172.001H533.857V171.267H536.328V172.001ZM531.386 172.001H528.915V171.267H531.386V172.001Z" fill="white"/>
<path d="M635.386 171.267H634.162V172.001H635.386V171.267Z" fill="white"/>
<path d="M244.026 416.606H242.279V415.872H244.026V416.606ZM239.662 416.606H237.044V415.872H239.662V416.606ZM234.421 416.606H231.803V415.872H234.421V416.606ZM229.181 416.606H226.563V415.872H229.181V416.606Z" fill="white"/>
<path d="M237.915 407.874H237.039V407.14H237.915V407.874ZM234.421 407.874H231.803V407.14H234.421V407.874ZM229.181 407.874H226.563V407.14H229.181V407.874Z" fill="white"/>
<path d="M244.026 399.137H242.279V398.403H244.026V399.137ZM239.662 399.137H237.044V398.403H239.662V399.137ZM234.421 399.137H231.803V398.403H234.421V399.137ZM229.181 399.137H226.563V398.403H229.181V399.137Z" fill="white"/>
<path d="M237.915 390.4H237.039V389.665H237.915V390.4ZM234.421 390.4H231.803V389.665H234.421V390.4ZM229.181 390.4H226.563V389.665H229.181V390.4Z" fill="white"/>
<path d="M244.026 381.667H242.279V380.933H244.026V381.667ZM239.662 381.667H237.044V380.933H239.662V381.667ZM234.421 381.667H231.803V380.933H234.421V381.667ZM229.181 381.667H226.563V380.933H229.181V381.667Z" fill="white"/>
<path d="M237.915 372.93H237.039V372.196H237.915V372.93ZM234.421 372.93H231.803V372.196H234.421V372.93ZM229.181 372.93H226.563V372.196H229.181V372.93Z" fill="white"/>
<path d="M244.026 364.193H242.279V363.459H244.026V364.193ZM239.662 364.193H237.044V363.459H239.662V364.193ZM234.421 364.193H231.803V363.459H234.421V364.193ZM229.181 364.193H226.563V363.459H229.181V364.193Z" fill="white"/>
<path d="M237.915 355.461H237.039V354.727H237.915V355.461ZM234.421 355.461H231.803V354.727H234.421V355.461ZM229.181 355.461H226.563V354.727H229.181V355.461Z" fill="white"/>
<path d="M244.026 346.724H242.279V345.99H244.026V346.724ZM239.662 346.724H237.044V345.99H239.662V346.724ZM234.421 346.724H231.803V345.99H234.421V346.724ZM229.181 346.724H226.563V345.99H229.181V346.724Z" fill="white"/>
<path d="M371.522 416.606H369.775V415.872H371.522V416.606ZM367.158 416.606H364.54V415.872H367.158V416.606ZM361.917 416.606H359.299V415.872H361.917V416.606ZM356.676 416.606H354.059V415.872H356.676V416.606Z" fill="white"/>
<path d="M370.651 407.874H368.033V407.14H370.651V407.874ZM365.411 407.874H362.793V407.14H365.411V407.874Z" fill="white"/>
<path d="M371.522 399.137H369.775V398.403H371.522V399.137ZM367.158 399.137H364.54V398.403H367.158V399.137ZM361.917 399.137H359.299V398.403H361.917V399.137ZM356.676 399.137H354.059V398.403H356.676V399.137Z" fill="white"/>
<path d="M370.651 390.4H368.033V389.665H370.651V390.4ZM365.411 390.4H362.793V389.665H365.411V390.4Z" fill="white"/>
<path d="M371.522 381.667H369.775V380.933H371.522V381.667ZM367.158 381.667H364.54V380.933H367.158V381.667ZM361.917 381.667H359.299V380.933H361.917V381.667ZM356.676 381.667H354.059V380.933H356.676V381.667Z" fill="white"/>
<path d="M370.651 372.93H368.033V372.196H370.651V372.93ZM365.411 372.93H362.793V372.196H365.411V372.93Z" fill="white"/>
<path d="M371.522 364.193H369.775V363.459H371.522V364.193ZM367.158 364.193H364.54V363.459H367.158V364.193ZM361.917 364.193H359.299V363.459H361.917V364.193ZM356.676 364.193H354.059V363.459H356.676V364.193Z" fill="white"/>
<path d="M370.651 355.461H368.033V354.727H370.651V355.461ZM365.411 355.461H362.793V354.727H365.411V355.461Z" fill="white"/>
<path d="M371.522 346.724H369.775V345.99H371.522V346.724ZM367.158 346.724H364.54V345.99H367.158V346.724ZM361.917 346.724H359.299V345.99H361.917V346.724ZM356.676 346.724H354.059V345.99H356.676V346.724Z" fill="white"/>
<path d="M524.291 210.038H403.367V210.772H524.291V210.038Z" fill="white"/>
<path d="M523.866 211.859L526.4 210.396L523.866 208.932V211.859Z" fill="white"/>
<path d="M362.969 210.038H322.997V210.772H362.969V210.038Z" fill="white"/>
<path d="M323.423 208.952L320.888 210.415L323.423 211.879V208.952Z" fill="white"/>
<path d="M618.553 433.782H602.714V434.516H618.553V433.782Z" fill="white"/>
<path d="M603.36 436.332L599.558 434.134L603.36 431.937V436.332Z" fill="white"/>
<path d="M617.912 436.332L621.714 434.134L617.912 431.937V436.332Z" fill="white"/>
<path d="M600.189 284.022H556.156V284.757H600.189V284.022Z" fill="white"/>
<path d="M556.797 286.572L552.995 284.38L556.797 282.182V286.572Z" fill="white"/>
<path d="M92.7888 248.956H80.321V249.691H92.7888V248.956Z" fill="white"/>
<path d="M80.9621 247.14L77.1601 249.333L80.9621 251.531V247.14Z" fill="white"/>
<path d="M92.7888 178.384H80.321V179.118H92.7888V178.384Z" fill="white"/>
<path d="M80.9621 176.568L77.1601 178.766L80.9621 180.959V176.568Z" fill="white"/>
<path d="M71.0632 248.956H56.1489V249.691H71.0632V248.956Z" fill="white"/>
<path d="M70.4222 251.507L74.2242 249.314L70.4222 247.116V251.507Z" fill="white"/>
<path d="M71.0632 178.384H56.1489V179.118H71.0632V178.384Z" fill="white"/>
<path d="M70.4222 180.934L74.2242 178.741L70.4222 176.544V180.934Z" fill="white"/>
<path d="M90.2395 376.636H89.5055V346.724H76.6708C76.4702 346.724 76.3038 346.557 76.3038 346.357L75.8145 167.478H76.5485L77.0378 345.99H89.8725C90.0731 345.99 90.2395 346.156 90.2395 346.357V376.636Z" fill="white"/>
<path d="M87.6902 375.99L89.8872 379.798L92.0842 375.99H87.6902Z" fill="white"/>
<path d="M71.0632 288.961H62.4219V289.695H71.0632V288.961Z" fill="white"/>
<path d="M70.4222 287.145L74.2242 289.338L70.4222 291.536V287.145Z" fill="white"/>
<path d="M213.625 216.969H193.001C192.932 216.969 192.878 216.915 192.878 216.847V207.816C192.878 207.748 192.932 207.694 193.001 207.694H213.625C213.694 207.694 213.748 207.748 213.748 207.816V216.847C213.748 216.915 213.694 216.969 213.625 216.969ZM193.123 216.724H213.503V207.938H193.123V216.724Z" fill="white"/>
<path d="M187.628 216.969H167.003C166.935 216.969 166.881 216.915 166.881 216.847V207.816C166.881 207.748 166.935 207.694 167.003 207.694H187.628C187.696 207.694 187.75 207.748 187.75 207.816V216.847C187.75 216.915 187.696 216.969 187.628 216.969ZM167.126 216.724H187.506V207.938H167.126V216.724Z" fill="white"/>
<path d="M213.625 230.405H193.001C192.932 230.405 192.878 230.351 192.878 230.283V221.252C192.878 221.184 192.932 221.13 193.001 221.13H213.625C213.694 221.13 213.748 221.184 213.748 221.252V230.283C213.748 230.351 213.694 230.405 213.625 230.405ZM193.123 230.161H213.503V221.374H193.123V230.161Z" fill="white"/>
<path d="M187.628 230.405H167.003C166.935 230.405 166.881 230.351 166.881 230.283V221.252C166.881 221.184 166.935 221.13 167.003 221.13H187.628C187.696 221.13 187.75 221.184 187.75 221.252V230.283C187.75 230.351 187.696 230.405 187.628 230.405ZM167.126 230.161H187.506V221.374H167.126V230.161Z" fill="white"/>
<path d="M190.75 363.581H167.845C167.776 363.581 167.723 363.528 167.723 363.459V352.421C167.723 352.353 167.776 352.299 167.845 352.299H190.75C190.818 352.299 190.872 352.353 190.872 352.421V363.459C190.872 363.528 190.818 363.581 190.75 363.581ZM167.967 363.337H190.627V352.544H167.967V363.337Z" fill="white"/>
<path d="M163.392 363.581H140.487C140.419 363.581 140.365 363.528 140.365 363.459V352.421C140.365 352.353 140.419 352.299 140.487 352.299H163.392C163.461 352.299 163.514 352.353 163.514 352.421V363.459C163.514 363.528 163.461 363.581 163.392 363.581ZM140.61 363.337H163.27V352.544H140.61V363.337Z" fill="white"/>
<path d="M190.75 378.667H167.845C167.776 378.667 167.723 378.613 167.723 378.545V367.507C167.723 367.438 167.776 367.385 167.845 367.385H190.75C190.818 367.385 190.872 367.438 190.872 367.507V378.545C190.872 378.613 190.818 378.667 190.75 378.667ZM167.967 378.422H190.627V367.629H167.967V378.422Z" fill="white"/>
<path d="M163.392 378.667H140.487C140.419 378.667 140.365 378.613 140.365 378.545V367.507C140.365 367.438 140.419 367.385 140.487 367.385H163.392C163.461 367.385 163.514 367.438 163.514 367.507V378.545C163.514 378.613 163.461 378.667 163.392 378.667ZM140.61 378.422H163.27V367.629H140.61V378.422Z" fill="white"/>
<path d="M309.732 420.179H287.908C287.771 420.179 287.663 420.072 287.663 419.935V363.464C287.663 363.327 287.771 363.219 287.908 363.219H291.803C292.459 359.856 295.375 357.438 298.82 357.438C302.265 357.438 305.181 359.856 305.837 363.219H309.732C309.869 363.219 309.976 363.327 309.976 363.464V419.935C309.976 420.072 309.869 420.179 309.732 420.179ZM288.153 419.69H309.487V363.709H305.631C305.514 363.709 305.411 363.621 305.391 363.503C304.858 360.273 302.093 357.928 298.82 357.928C295.546 357.928 292.787 360.273 292.248 363.503C292.229 363.621 292.126 363.709 292.009 363.709H288.153V419.69Z" fill="white"/>
<path d="M403.161 377.561H395.822C395.753 377.561 395.699 377.507 395.699 377.438V333.963C395.699 333.895 395.753 333.841 395.822 333.841H403.161C403.23 333.841 403.284 333.895 403.284 333.963V377.438C403.284 377.507 403.23 377.561 403.161 377.561ZM395.944 377.316H403.039V334.086H395.944V377.316Z" fill="white"/>
<path d="M415.15 377.561H407.81C407.741 377.561 407.688 377.507 407.688 377.438V333.963C407.688 333.895 407.741 333.841 407.81 333.841H415.15C415.218 333.841 415.272 333.895 415.272 333.963V377.438C415.272 377.507 415.218 377.561 415.15 377.561ZM407.932 377.316H415.027V334.086H407.932V377.316Z" fill="white"/>
<path d="M403.161 329.01H395.822C395.778 329.01 395.739 328.971 395.739 328.927V308.555C395.739 308.511 395.778 308.472 395.822 308.472H403.161C403.205 308.472 403.245 308.511 403.245 308.555V328.927C403.245 328.971 403.205 329.01 403.161 329.01ZM395.905 328.843H403.078V308.638H395.905V328.843Z" fill="white"/>
<path d="M415.15 329.01H407.81C407.766 329.01 407.727 328.971 407.727 328.927V308.555C407.727 308.511 407.766 308.472 407.81 308.472H415.15C415.194 308.472 415.233 308.511 415.233 308.555V328.927C415.233 328.971 415.194 329.01 415.15 329.01ZM407.893 328.843H415.066V308.638H407.893V328.843Z" fill="white"/>
<path d="M99.649 381.496H76.1815V382.23H99.649V381.496Z" fill="white"/>
<path d="M344.184 353.332H321.431V354.066H344.184V353.332Z" fill="white"/>
<path d="M340.847 355.672H340.113V428.07H340.847V355.672Z" fill="white"/>
<path d="M341.933 427.644L340.47 430.179L339.007 427.644H341.933Z" fill="white"/>
<path d="M341.933 356.097L340.47 353.562L339.007 356.097H341.933Z" fill="white"/>
<path d="M340.847 342.24H340.113V351.589H340.847V342.24Z" fill="white"/>
<path d="M341.933 351.163L340.47 353.699L339.007 351.163H341.933Z" fill="white"/>
<path d="M372.432 430.561H318.559V431.295H372.432V430.561Z" fill="white"/>
<path d="M340.847 434.506H340.113V443.855H340.847V434.506Z" fill="white"/>
<path d="M339.027 434.932L340.49 432.397L341.953 434.932H339.027Z" fill="white"/>
<path d="M319.185 434.506H318.451V443.855H319.185V434.506Z" fill="white"/>
<path d="M317.36 434.932L318.823 432.397L320.286 434.932H317.36Z" fill="white"/>
<path d="M319.185 424.609H318.451V426.616H319.185V424.609Z" fill="white"/>
<path d="M317.36 426.19L318.823 428.725L320.286 426.19H317.36Z" fill="white"/>
<path d="M276.365 353.332H253.612V354.066H276.365V353.332Z" fill="white"/>
<path d="M257.683 355.672H256.949V428.07H257.683V355.672Z" fill="white"/>
<path d="M258.769 427.644L257.306 430.179L255.843 427.644H258.769Z" fill="white"/>
<path d="M258.769 356.097L257.306 353.562L255.843 356.097H258.769Z" fill="white"/>
<path d="M257.683 342.24H256.949V351.589H257.683V342.24Z" fill="white"/>
<path d="M258.769 351.163L257.306 353.699L255.843 351.163H258.769Z" fill="white"/>
<path d="M276.365 430.561H87.6902V431.295H276.365V430.561Z" fill="white"/>
<path d="M257.683 434.506H256.949V443.855H257.683V434.506Z" fill="white"/>
<path d="M255.858 434.932L257.326 432.397L258.789 434.932H255.858Z" fill="white"/>
<path d="M279.629 332.284H278.895V348.941H279.629V332.284Z" fill="white"/>
<path d="M315.696 338.726H281.297V339.46H315.696V338.726Z" fill="white"/>
<path d="M315.266 337.634L317.8 339.103L315.266 340.566V337.634Z" fill="white"/>
<path d="M281.728 337.634L279.193 339.103L281.728 340.566V337.634Z" fill="white"/>
<path d="M277.153 338.726H273.341V339.46H277.153V338.726Z" fill="white"/>
<path d="M276.727 337.634L279.262 339.103L276.727 340.566V337.634Z" fill="white"/>
<path d="M318.559 332.284H317.825V348.941H318.559V332.284Z" fill="white"/>
<path d="M324.108 338.726H320.296V339.46H324.108V338.726Z" fill="white"/>
<path d="M320.726 340.547L318.192 339.083L320.726 337.62V340.547Z" fill="white"/>
<path d="M307.427 418.172H290.844C290.707 418.172 290.599 418.065 290.599 417.928V367.791C290.599 367.654 290.707 367.546 290.844 367.546H307.427C307.564 367.546 307.672 367.654 307.672 367.791V417.928C307.672 418.065 307.564 418.172 307.427 418.172ZM291.089 417.683H307.182V368.036H291.089V417.683Z" fill="white"/>
<path d="M298.066 415.622H292.728C292.645 415.622 292.571 415.554 292.571 415.466V370.968C292.571 370.884 292.64 370.811 292.728 370.811H298.066C298.149 370.811 298.223 370.879 298.223 370.968V415.466C298.223 415.549 298.154 415.622 298.066 415.622ZM292.884 415.314H297.91V371.124H292.884V415.314Z" fill="white"/>
<path d="M305.293 415.622H299.955C299.872 415.622 299.798 415.554 299.798 415.466V370.968C299.798 370.884 299.867 370.811 299.955 370.811H305.293C305.377 370.811 305.45 370.879 305.45 370.968V415.466C305.45 415.549 305.382 415.622 305.293 415.622ZM300.112 415.314H305.137V371.124H300.112V415.314Z" fill="white"/>
<path d="M317.732 38.7223H284.033V39.4565H317.732V38.7223Z" fill="white"/>
<path d="M480.63 38.7223H455.934V39.4565H480.63V38.7223Z" fill="white"/>
<path d="M599.436 304.825H598.701V450.644H599.436V304.825Z" fill="white"/>
<path d="M601.251 449.998L599.054 453.801L596.857 449.998H601.251Z" fill="white"/>
<path d="M601.251 305.466L599.054 301.663L596.857 305.466H601.251Z" fill="white"/>
<path d="M516.198 171.517H501.788V172.251H516.198V171.517Z" fill="white"/>
<path d="M502.218 173.337L499.684 171.874L502.218 170.41V173.337Z" fill="white"/>
<path d="M515.772 173.337L518.307 171.874L515.772 170.41V173.337Z" fill="white"/>
<path d="M496.156 171.517H431.576V172.251H496.156V171.517Z" fill="white"/>
<path d="M432.007 173.337L429.467 171.874L432.007 170.41V173.337Z" fill="white"/>
<path d="M495.725 173.337L498.26 171.874L495.725 170.41V173.337Z" fill="white"/>
<path d="M523.371 176.592C523.171 176.592 523.004 176.426 523.004 176.225V104.909C523.004 104.708 523.171 104.542 523.371 104.542C523.572 104.542 523.739 104.708 523.739 104.909V176.225C523.739 176.426 523.572 176.592 523.371 176.592Z" fill="white"/>
<path d="M557.55 187.434H538.305V188.169H557.55V187.434Z" fill="white"/>
<path d="M543.145 177.013H542.411V184.38H543.145V177.013Z" fill="white"/>
<path d="M544.231 183.954L542.768 186.49L541.305 183.954H544.231Z" fill="white"/>
<path d="M544.231 177.444L542.768 174.904L541.305 177.444H544.231Z" fill="white"/>
<path d="M190.681 288.335H189.947V335.833H190.681V288.335Z" fill="white"/>
<path d="M200.673 331.638H193.637V332.373H200.673V331.638Z" fill="white"/>
<path d="M194.067 333.459L191.533 331.996L194.067 330.532V333.459Z" fill="white"/>
<path d="M186.918 331.638H182.886V332.373H186.918V331.638Z" fill="white"/>
<path d="M186.488 330.547L189.027 332.01L186.488 333.479V330.547Z" fill="white"/>
<path d="M141.652 288.335H140.918V335.833H141.652V288.335Z" fill="white"/>
<path d="M137.957 331.638H130.921V332.373H137.957V331.638Z" fill="white"/>
<path d="M137.532 330.547L140.066 332.01L137.532 333.479V330.547Z" fill="white"/>
<path d="M148.708 331.638H144.676V332.373H148.708V331.638Z" fill="white"/>
<path d="M145.106 333.459L142.572 331.996L145.106 330.532V333.459Z" fill="white"/>
<path d="M424.916 117.136H417.166V117.87H424.916V117.136Z" fill="white"/>
<path d="M424.491 118.957L427.025 117.493L424.491 116.03V118.957Z" fill="white"/>
<path d="M428.444 113.847H427.71V177.102H428.444V113.847Z" fill="white"/>
<path d="M424.921 171.517H416.094V172.251H424.921V171.517Z" fill="white"/>
<path d="M424.491 170.425L427.025 171.889L424.491 173.352V170.425Z" fill="white"/>
<path d="M537.004 391.09H443.501C443.3 391.09 443.134 390.923 443.134 390.723V345.627C443.134 345.427 443.3 345.26 443.501 345.26H537.004C537.204 345.26 537.371 345.427 537.371 345.627V390.723C537.371 390.923 537.204 391.09 537.004 391.09ZM443.868 390.356H536.637V345.995H443.868V390.356Z" fill="white"/>
<path d="M488.816 345.627H488.082V390.723H488.816V345.627Z" fill="white"/>
<path d="M537.004 369.519H443.5V370.253H537.004V369.519Z" fill="white"/>
<path d="M534.254 367.987H490.68C490.612 367.987 490.558 367.933 490.558 367.864V348.506C490.558 348.437 490.612 348.383 490.68 348.383H534.254C534.322 348.383 534.376 348.437 534.376 348.506V367.864C534.376 367.933 534.322 367.987 534.254 367.987ZM490.803 367.742H534.131V348.628H490.803V367.742Z" fill="white"/>
<path d="M486.223 367.987H446.25C446.182 367.987 446.128 367.933 446.128 367.864V348.506C446.128 348.437 446.182 348.383 446.25 348.383H486.223C486.291 348.383 486.345 348.437 486.345 348.506V367.864C486.345 367.933 486.291 367.987 486.223 367.987ZM446.373 367.742H486.1V348.628H446.373V367.742Z" fill="white"/>
<path d="M534.254 387.967H490.68C490.612 387.967 490.558 387.913 490.558 387.845V371.912C490.558 371.844 490.612 371.79 490.68 371.79H534.254C534.322 371.79 534.376 371.844 534.376 371.912V387.845C534.376 387.913 534.322 387.967 534.254 387.967ZM490.803 387.722H534.131V372.035H490.803V387.722Z" fill="white"/>
<path d="M486.223 387.967H446.25C446.182 387.967 446.128 387.913 446.128 387.845V371.912C446.128 371.844 446.182 371.79 446.25 371.79H486.223C486.291 371.79 486.345 371.844 486.345 371.912V387.845C486.345 387.913 486.291 387.967 486.223 387.967ZM446.373 387.722H486.1V372.035H446.373V387.722Z" fill="white"/>
<path d="M185.431 270.2L189.311 280.939H191.244L187.364 270.2H185.431Z" fill="white"/>
<path d="M202.141 270.2L206.021 280.939H207.954L204.074 270.2H202.141Z" fill="white"/>
<path d="M193.788 270.2L197.664 280.939H199.596L195.721 270.2H193.788Z" fill="white"/>
<path d="M212.431 270.2H210.498L214.374 280.939H216.307L212.431 270.2Z" fill="white"/>
<path d="M248.587 277.772L245.852 270.2H243.919L246.943 278.574C247.319 278.134 247.867 277.83 248.587 277.772Z" fill="white"/>
<path d="M255.325 273.298L254.204 270.2H252.271L253.622 273.944C254.082 273.548 254.679 273.298 255.325 273.298Z" fill="white"/>
<path d="M101.88 270.2L105.756 280.939H107.688L103.813 270.2H101.88Z" fill="white"/>
<path d="M233.017 280.939L229.141 270.2H227.209L231.084 280.939H233.017Z" fill="white"/>
<path d="M224.664 280.939L220.784 270.2H218.856L222.731 280.939H224.664Z" fill="white"/>
<path d="M86.8632 270.2V274.894L89.0456 280.939H90.9783L87.103 270.2H86.8632Z" fill="white"/>
<path d="M241.374 280.939L237.499 270.2H235.566L239.441 280.939H241.374Z" fill="white"/>
<path d="M375.06 280.939L371.18 270.2H369.247L373.127 280.939H375.06Z" fill="white"/>
<path d="M93.5228 270.2L97.4031 280.939H99.3359L95.4556 270.2H93.5228Z" fill="white"/>
<path d="M366.703 280.939L362.827 270.2H360.894L364.77 280.939H366.703Z" fill="white"/>
<path d="M348.387 278.77C348.696 278.77 348.989 278.829 349.268 278.927L346.117 270.195H344.184L347.345 278.946C347.678 278.829 348.03 278.77 348.392 278.77H348.387Z" fill="white"/>
<path d="M358.35 280.939L354.47 270.2H352.537L356.417 280.939H358.35Z" fill="white"/>
<path d="M143.658 270.2L147.533 280.939H149.466L145.591 270.2H143.658Z" fill="white"/>
<path d="M152.011 270.2L155.891 280.939H157.824L153.943 270.2H152.011Z" fill="white"/>
<path d="M168.721 270.2L172.601 280.939H174.534L170.654 270.2H168.721Z" fill="white"/>
<path d="M135.301 270.2L139.176 280.939H141.109L137.233 270.2H135.301Z" fill="white"/>
<path d="M160.368 270.2L164.244 280.939H166.176L162.301 270.2H160.368Z" fill="white"/>
<path d="M126.943 270.2L130.823 280.939H132.756L128.876 270.2H126.943Z" fill="white"/>
<path d="M110.233 270.2L114.113 280.939H116.046L112.166 270.2H110.233Z" fill="white"/>
<path d="M118.59 270.2L122.466 280.939H124.399L120.523 270.2H118.59Z" fill="white"/>
<path d="M177.078 270.2L180.954 280.939H182.886L179.011 270.2H177.078Z" fill="white"/>
<path d="M486.223 270.2L490.098 280.939H492.031L488.155 270.2H486.223Z" fill="white"/>
<path d="M461.365 317.072L465.021 327.194H466.948L463.298 317.072H461.365Z" fill="white"/>
<path d="M486.433 317.072L490.083 327.194H492.016L488.366 317.072H486.433Z" fill="white"/>
<path d="M494.786 317.072L498.441 327.194H500.374L496.718 317.072H494.786Z" fill="white"/>
<path d="M494.575 270.2L498.455 280.939H500.388L496.513 270.2H494.575Z" fill="white"/>
<path d="M461.155 270.2L465.035 280.939H466.968L463.088 270.2H461.155Z" fill="white"/>
<path d="M469.723 317.072L473.373 327.194H475.306L471.656 317.072H469.723Z" fill="white"/>
<path d="M478.076 317.072L481.731 327.194H483.664L480.008 317.072H478.076Z" fill="white"/>
<path d="M469.513 270.2L473.388 280.939H475.321L471.445 270.2H469.513Z" fill="white"/>
<path d="M477.865 270.2L481.745 280.939H483.678L479.798 270.2H477.865Z" fill="white"/>
<path d="M553.273 317.072L556.929 327.194H558.857L555.206 317.072H553.273Z" fill="white"/>
<path d="M536.563 317.072L540.219 327.194H542.146L538.496 317.072H536.563Z" fill="white"/>
<path d="M544.916 317.072L548.571 327.194H550.504L546.849 317.072H544.916Z" fill="white"/>
<path d="M519.853 317.072L523.504 327.194H525.436L521.786 317.072H519.853Z" fill="white"/>
<path d="M511.496 317.072L515.151 327.194H517.084L513.429 317.072H511.496Z" fill="white"/>
<path d="M528.206 317.072L531.861 327.194H533.794L530.139 317.072H528.206Z" fill="white"/>
<path d="M503.143 317.072L506.793 327.194H508.726L505.076 317.072H503.143Z" fill="white"/>
<path d="M502.933 270.2L506.808 280.939H508.746L504.866 270.2H502.933Z" fill="white"/>
<path d="M377.604 270.2L381.48 280.939H383.413L379.537 270.2H377.604Z" fill="white"/>
<path d="M385.957 270.2L389.837 280.939H391.77L387.89 270.2H385.957Z" fill="white"/>
<path d="M394.315 270.2L398.19 280.939H400.123L396.247 270.2H394.315Z" fill="white"/>
<path d="M402.667 270.2L406.547 280.939H408.48L404.605 270.2H402.667Z" fill="white"/>
<path d="M452.802 270.2L456.678 280.939H458.611L454.735 270.2H452.802Z" fill="white"/>
<path d="M444.445 270.2L448.325 280.939H450.258L446.378 270.2H444.445Z" fill="white"/>
<path d="M436.092 270.2L439.968 280.939H441.9L438.025 270.2H436.092Z" fill="white"/>
<path d="M411.025 270.2L414.9 280.939H416.838L412.957 270.2H411.025Z" fill="white"/>
<path d="M453.008 317.072L456.663 327.194H458.596L454.941 317.072H453.008Z" fill="white"/>
<path d="M444.655 317.072L448.31 327.194H450.238L446.588 317.072H444.655Z" fill="white"/>
<path d="M419.377 270.2L423.258 280.939H425.19L421.315 270.2H419.377Z" fill="white"/>
<path d="M427.735 270.2L431.61 280.939H433.548L429.668 270.2H427.735Z" fill="white"/>
<path d="M436.298 317.072L439.953 327.194H441.886L438.231 317.072H436.298Z" fill="white"/>
<path d="M465.216 17.7679H464.482V64.3071H465.216V17.7679Z" fill="white"/>
<path d="M462.667 18.4091L464.859 14.6059L467.056 18.4091H462.667Z" fill="white"/>
<path d="M462.667 63.6659L464.859 67.4691L467.056 63.6659H462.667Z" fill="white"/>
<path d="M303.278 17.7679H302.543V64.3071H303.278V17.7679Z" fill="white"/>
<path d="M300.728 18.4091L302.92 14.6059L305.117 18.4091H300.728Z" fill="white"/>
<path d="M300.728 63.6659L302.92 67.4691L305.117 63.6659H300.728Z" fill="white"/>
</g>
<defs>
<clipPath id="clip0_133_3699">
<rect width="648" height="453.801" fill="white"/>
</clipPath>
</defs>
</svg>
