<svg width="184" height="80" viewBox="0 0 184 80" fill="none" xmlns="http://www.w3.org/2000/svg">
<g clip-path="url(#clip0_2305_6050)">
<path d="M80.2496 17.7324H67.5698V0.835571H79.9344V3.27726H70.3041V7.50146H78.1455V9.94315H70.3041V15.3H80.2588V17.7417L80.2496 17.7324Z" fill="white"/>
<path d="M97.3135 17.7324H85.3289V0.835571H88.0817V15.2907H97.3135V17.7324Z" fill="white"/>
<path d="M70.2948 65.842H67.5605V48.9451H70.2948V55.611H79.3597V48.9451H82.094V65.842H79.3597V58.0434H70.2948V65.842Z" fill="white"/>
<path d="M100.279 63.6509C98.5926 65.3221 96.47 66.1576 93.9211 66.1576C91.3721 66.1576 89.2589 65.3221 87.5627 63.6509C85.8943 61.9427 85.0508 59.8631 85.0508 57.4028C85.0508 54.9426 85.885 52.8444 87.5627 51.1733C89.2496 49.4836 91.3721 48.6388 93.9211 48.6388C96.47 48.6388 98.5926 49.4836 100.279 51.1733C101.966 52.8444 102.81 54.924 102.81 57.4028C102.81 59.8817 101.966 61.9613 100.279 63.6509ZM89.6111 61.887C90.7882 63.0753 92.2249 63.6695 93.9303 63.6695C95.6358 63.6695 97.0725 63.0753 98.2496 61.887C99.4268 60.6615 100.011 59.1668 100.011 57.3936C100.011 55.6203 99.4268 54.1163 98.2496 52.928C97.0725 51.721 95.6358 51.1176 93.9303 51.1176C92.2249 51.1176 90.7882 51.721 89.6111 52.928C88.4525 54.107 87.8685 55.5925 87.8685 57.3936C87.8685 59.1946 88.4432 60.6894 89.6111 61.887Z" fill="white"/>
<path d="M108.519 65.842H105.785V48.9451H108.566L114.201 56.5487L119.79 48.9451H122.525V65.842H119.79V53.0022L114.952 59.371H113.367L108.529 53.0022V65.842H108.519Z" fill="white"/>
<path d="M138.801 65.842H126.121V48.9451H138.486V51.3868H128.855V55.611H136.697V58.0527H128.855V63.4096H138.81V65.8512L138.801 65.842Z" fill="white"/>
<path d="M73.6965 41.9172H67.5698V25.0203H73.6965C76.4772 25.0203 78.748 25.8095 80.5184 27.3877C82.2887 28.966 83.1785 30.9899 83.1785 33.4687C83.1785 35.9476 82.2887 37.9993 80.5184 39.5776C78.7666 41.1373 76.4864 41.9172 73.6965 41.9172ZM70.2948 27.462V39.4848H73.4462C75.6337 39.4848 77.3299 38.9463 78.5348 37.8693C79.7583 36.7738 80.3701 35.307 80.3701 33.478C80.3701 31.6491 79.7583 30.1822 78.5348 29.0867C77.3299 28.0098 75.6337 27.4713 73.4462 27.4713H70.2948V27.462Z" fill="white"/>
<path d="M86.2001 41.9172H83.299L90.8994 24.9275H93.5318L101.132 41.9172H98.2033L96.3124 37.7208H88.0724L86.2094 41.9172H86.2001ZM92.1785 28.279L88.9993 35.372H95.3577L92.1785 28.279Z" fill="white"/>
<path d="M112.672 42.3814C110.077 42.3814 107.889 41.5644 106.119 39.9211C104.376 38.2593 103.514 36.1611 103.514 33.6173C103.514 31.0735 104.386 28.9846 106.119 27.3413C107.843 25.6795 110.021 24.8532 112.672 24.8532C114.442 24.8532 116.018 25.2339 117.39 25.9859V28.6689C115.981 27.7869 114.414 27.3413 112.7 27.3413C110.883 27.3413 109.354 27.9355 108.13 29.1238C106.925 30.3029 106.314 31.7976 106.314 33.6173C106.314 35.4369 106.925 36.9409 108.149 38.1293C109.372 39.3084 110.92 39.8932 112.792 39.8932C114.776 39.8932 116.435 39.3733 117.761 38.3521V41.0352C116.305 41.9357 114.609 42.3906 112.672 42.3906V42.3814Z" fill="white"/>
<path d="M123.841 42.0657H121.107V25.1689H123.841V31.8347H132.906V25.1689H135.64V42.0657H132.906V34.2671H123.841V42.0657Z" fill="white"/>
<path d="M141.238 42.0657H138.337L145.938 25.076H148.57L156.171 42.0657H153.242L151.351 37.8693H143.111L141.248 42.0657H141.238ZM147.217 28.4275L144.038 35.5205H150.396L147.217 28.4275Z" fill="white"/>
<path d="M70.3782 78.2082C69.6367 78.2082 69.0157 77.9761 68.5059 77.5026C67.9962 77.0291 67.7366 76.4257 67.7366 75.7015C67.7366 74.9774 67.9962 74.3832 68.5059 73.919C69.025 73.4548 69.6553 73.2227 70.3875 73.2227C70.9436 73.2227 71.4349 73.3341 71.8613 73.5477V74.4389C71.4164 74.2347 70.9807 74.1325 70.5451 74.1325C70.0538 74.1325 69.6367 74.2811 69.3123 74.5782C68.9786 74.8753 68.8118 75.2559 68.8118 75.7015C68.8118 76.1472 68.9786 76.5371 69.3123 76.8342C69.646 77.1313 70.0538 77.2798 70.5451 77.2798C71.0734 77.2798 71.5369 77.1591 71.9447 76.927V77.809C71.4812 78.0689 70.9529 78.1896 70.3782 78.1896V78.2082Z" fill="white"/>
<path d="M75.9303 78.0782H74.8551V74.2718H73.196V73.362H77.5801V74.2718H75.9303V78.0782Z" fill="white"/>
<path d="M81.8809 73.232C82.576 73.232 83.1414 73.4734 83.5863 73.9562C84.0312 74.4296 84.2537 75.0238 84.2537 75.7294C84.2537 76.435 84.0312 77.0106 83.5863 77.4841C83.1414 77.9668 82.576 78.2082 81.8809 78.2082C81.1301 78.2082 80.5462 77.9483 80.1383 77.4376V80H79.0631V73.362H80.1383V74.0026C80.5462 73.4919 81.1301 73.232 81.8809 73.232ZM81.5935 74.1418C81.2784 74.1418 80.9911 74.2161 80.7315 74.3739C80.472 74.5318 80.2681 74.736 80.1291 74.9867V76.4443C80.2681 76.6856 80.472 76.8899 80.7315 77.0477C80.9911 77.2055 81.2784 77.2798 81.5843 77.2798C82.0384 77.2798 82.4092 77.1313 82.7151 76.8249C83.0117 76.5185 83.16 76.1472 83.16 75.7108C83.16 75.2745 83.0117 74.8938 82.7151 74.5967C82.4185 74.2904 82.0384 74.1325 81.5843 74.1325L81.5935 74.1418Z" fill="white"/>
<path d="M88.2856 78.2082C87.4978 78.2082 86.8582 77.9668 86.3484 77.4841C85.8387 77.0013 85.5884 76.4164 85.5884 75.7108C85.5884 75.0052 85.8387 74.4296 86.3484 73.9562C86.849 73.4734 87.4978 73.232 88.2856 73.232C89.0735 73.232 89.6945 73.4734 90.2135 73.9562C90.7141 74.4389 90.9736 75.0238 90.9736 75.7108C90.9736 76.3978 90.7233 76.992 90.2135 77.4841C89.7038 77.9668 89.0549 78.2082 88.2856 78.2082ZM88.2856 77.2984C88.7398 77.2984 89.1198 77.1498 89.435 76.8435C89.7408 76.5464 89.8984 76.175 89.8984 75.7201C89.8984 75.2652 89.7408 74.9031 89.435 74.606C89.1198 74.2997 88.7398 74.1511 88.2856 74.1511C87.8315 74.1511 87.4422 74.2997 87.127 74.606C86.8212 74.9031 86.6636 75.2745 86.6636 75.7201C86.6636 76.1657 86.8212 76.5464 87.127 76.8435C87.4422 77.1405 87.8222 77.2984 88.2856 77.2984Z" fill="white"/>
<path d="M93.6616 78.0782H92.6512V73.362H93.7264V76.5649L96.368 73.362H97.3783V78.0782H96.3032V74.866L93.6616 78.0782Z" fill="white"/>
<path d="M101.577 78.0782H100.502V74.2718H98.8428V73.362H103.227V74.2718H101.577V78.0782Z" fill="white"/>
<path d="M104.265 75.7108C104.265 74.996 104.497 74.4111 104.96 73.9469C105.433 73.4734 106.035 73.232 106.777 73.232C107.287 73.232 107.713 73.362 108.065 73.6126C108.76 74.0861 109.103 74.801 109.103 75.748V76.0172H105.35C105.414 76.4164 105.618 76.7228 105.943 76.9456C106.276 77.1684 106.694 77.2798 107.194 77.2798C107.75 77.2798 108.278 77.1406 108.77 76.8527V77.7254C108.316 78.0318 107.713 78.1896 106.962 78.1896C106.212 78.1896 105.572 77.9575 105.034 77.4933C104.515 77.0291 104.256 76.435 104.256 75.6923L104.265 75.7108ZM105.359 75.2281H108.01C108 74.931 107.88 74.671 107.657 74.4482C107.435 74.2161 107.12 74.1047 106.721 74.1047C106.323 74.1047 106.026 74.2161 105.776 74.4296C105.526 74.6432 105.387 74.9124 105.35 75.2281H105.359Z" fill="white"/>
<path d="M114.368 74.2718H112.524L112.505 74.9588C112.505 75.6365 112.422 76.2214 112.283 76.7042C112.051 77.6048 111.486 78.0689 110.596 78.0968C110.457 78.0968 110.345 78.0875 110.253 78.0597V77.1684C110.327 77.187 110.401 77.1963 110.475 77.1963C110.827 77.1963 111.078 77.0199 111.226 76.6763C111.374 76.3236 111.448 75.7387 111.467 74.9031L111.495 73.362H115.443V78.0782H114.368V74.2718Z" fill="white"/>
<path d="M120.013 78.0782H117.482V73.362H118.558V74.7917H119.966C120.569 74.7917 121.042 74.9402 121.403 75.2373C121.765 75.5344 121.941 75.9336 121.941 76.435C121.941 76.8992 121.774 77.2984 121.431 77.614C121.088 77.9204 120.615 78.0782 120.013 78.0782ZM118.558 75.6644V77.2055H119.846C120.161 77.2055 120.402 77.1406 120.588 77.0013C120.764 76.862 120.856 76.6764 120.856 76.435C120.856 76.1936 120.764 75.9986 120.588 75.8686C120.411 75.7294 120.161 75.6644 119.846 75.6644H118.558Z" fill="white"/>
<path d="M125.926 78.2082C125.185 78.2082 124.564 77.9761 124.054 77.5026C123.544 77.0291 123.285 76.4257 123.285 75.7015C123.285 74.9774 123.544 74.3832 124.054 73.919C124.573 73.4548 125.203 73.2227 125.936 73.2227C126.492 73.2227 126.983 73.3341 127.409 73.5477V74.4389C126.964 74.2347 126.529 74.1325 126.093 74.1325C125.602 74.1325 125.185 74.2811 124.86 74.5782C124.527 74.8753 124.36 75.2559 124.36 75.7015C124.36 76.1472 124.527 76.5371 124.86 76.8342C125.194 77.1313 125.602 77.2798 126.093 77.2798C126.622 77.2798 127.085 77.1591 127.493 76.927V77.809C127.029 78.0689 126.501 78.1896 125.926 78.1896V78.2082Z" fill="white"/>
<path d="M131.478 78.0782H130.403V74.2718H128.744V73.362H133.128V74.2718H131.478V78.0782Z" fill="white"/>
<path d="M137.429 78.0782H134.602V73.362H137.271C137.753 73.362 138.124 73.4734 138.402 73.6962C138.671 73.919 138.81 74.2068 138.81 74.5689C138.81 74.801 138.754 75.0052 138.634 75.1909C138.513 75.3766 138.365 75.5066 138.18 75.5901C138.819 75.7665 139.134 76.175 139.134 76.797C139.134 77.1963 138.986 77.5119 138.68 77.744C138.374 77.9761 137.957 78.0875 137.42 78.0875L137.429 78.0782ZM135.686 74.1975V75.2466H137.021C137.253 75.2466 137.438 75.2002 137.568 75.1074C137.698 75.0145 137.763 74.8845 137.763 74.7267C137.763 74.3739 137.522 74.1975 137.021 74.1975H135.686ZM135.686 76.0822V77.2427H137.244C137.494 77.2427 137.698 77.187 137.837 77.0848C137.976 76.9827 138.05 76.8435 138.05 76.6578C138.05 76.4721 137.976 76.3236 137.837 76.2214C137.698 76.1193 137.494 76.0636 137.244 76.0636H135.686V76.0822Z" fill="white"/>
<path d="M143.241 78.2082C142.453 78.2082 141.813 77.9668 141.303 77.4841C140.794 77.0013 140.543 76.4164 140.543 75.7108C140.543 75.0052 140.794 74.4296 141.303 73.9562C141.804 73.4734 142.453 73.232 143.241 73.232C144.028 73.232 144.649 73.4734 145.168 73.9562C145.669 74.4389 145.928 75.0238 145.928 75.7108C145.928 76.3978 145.678 76.992 145.168 77.4841C144.659 77.9668 144.01 78.2082 143.241 78.2082ZM143.241 77.2984C143.695 77.2984 144.075 77.1498 144.39 76.8435C144.696 76.5464 144.853 76.175 144.853 75.7201C144.853 75.2652 144.696 74.9031 144.39 74.606C144.075 74.2997 143.695 74.1511 143.241 74.1511C142.786 74.1511 142.397 74.2997 142.082 74.606C141.776 74.9031 141.618 75.2745 141.618 75.7201C141.618 76.1657 141.776 76.5464 142.082 76.8435C142.397 77.1405 142.777 77.2984 143.241 77.2984Z" fill="white"/>
<path d="M151.184 79.378H150.146V77.1684H150.785C151.045 76.7878 151.221 76.3236 151.323 75.7758C151.425 75.2466 151.481 74.4389 151.49 73.362H155.392V77.1684H156.245V79.378H155.225V78.0782H151.184V79.378ZM151.925 77.1684H154.317V74.2718H152.482C152.482 75.4973 152.296 76.4628 151.925 77.1684Z" fill="white"/>
<path d="M160.156 78.2082C159.368 78.2082 158.729 77.9668 158.219 77.4841C157.709 77.0013 157.459 76.4164 157.459 75.7108C157.459 75.0052 157.709 74.4296 158.219 73.9562C158.719 73.4734 159.368 73.232 160.156 73.232C160.944 73.232 161.565 73.4734 162.084 73.9562C162.585 74.4389 162.844 75.0238 162.844 75.7108C162.844 76.3978 162.594 76.992 162.084 77.4841C161.574 77.9668 160.925 78.2082 160.156 78.2082ZM160.156 77.2984C160.61 77.2984 160.99 77.1498 161.305 76.8435C161.611 76.5464 161.769 76.175 161.769 75.7201C161.769 75.2652 161.611 74.9031 161.305 74.606C160.99 74.2997 160.61 74.1511 160.156 74.1511C159.702 74.1511 159.313 74.2997 158.998 74.606C158.692 74.9031 158.534 75.2745 158.534 75.7201C158.534 76.1657 158.692 76.5464 158.998 76.8435C159.313 77.1405 159.693 77.2984 160.156 77.2984Z" fill="white"/>
<path d="M165.569 78.0782H164.531V73.362H165.588L167.265 75.3209L168.952 73.362H170.009V78.0782H168.971V74.7731L167.479 76.5092H167.061L165.578 74.7731V78.0782H165.569Z" fill="white"/>
<path d="M174.384 78.2082C173.596 78.2082 172.956 77.9668 172.447 77.4841C171.937 77.0013 171.687 76.4164 171.687 75.7108C171.687 75.0052 171.937 74.4296 172.447 73.9562C172.947 73.4734 173.596 73.232 174.384 73.232C175.172 73.232 175.793 73.4734 176.312 73.9562C176.812 74.4389 177.072 75.0238 177.072 75.7108C177.072 76.3978 176.822 76.992 176.312 77.4841C175.802 77.9668 175.153 78.2082 174.384 78.2082ZM174.384 77.2984C174.838 77.2984 175.218 77.1498 175.533 76.8435C175.839 76.5464 175.997 76.175 175.997 75.7201C175.997 75.2652 175.839 74.9031 175.533 74.606C175.218 74.2997 174.838 74.1511 174.384 74.1511C173.93 74.1511 173.54 74.2997 173.225 74.606C172.919 74.9031 172.762 75.2745 172.762 75.7201C172.762 76.1657 172.919 76.5464 173.225 76.8435C173.54 77.1405 173.92 77.2984 174.384 77.2984Z" fill="white"/>
<path d="M181.576 78.0782H178.749V73.362H181.419C181.901 73.362 182.272 73.4734 182.55 73.6962C182.818 73.919 182.957 74.2068 182.957 74.5689C182.957 74.801 182.902 75.0052 182.781 75.1909C182.661 75.3766 182.513 75.5066 182.327 75.5901C182.967 75.7665 183.282 76.175 183.282 76.797C183.282 77.1963 183.134 77.5119 182.828 77.744C182.522 77.9761 182.105 78.0875 181.567 78.0875L181.576 78.0782ZM179.834 74.1975V75.2466H181.169C181.4 75.2466 181.586 75.2002 181.715 75.1074C181.845 75.0145 181.91 74.8845 181.91 74.7267C181.91 74.3739 181.669 74.1975 181.169 74.1975H179.834ZM179.834 76.0822V77.2427H181.391C181.641 77.2427 181.845 77.187 181.984 77.0848C182.123 76.9827 182.197 76.8435 182.197 76.6578C182.197 76.4721 182.123 76.3236 181.984 76.2214C181.845 76.1193 181.641 76.0636 181.391 76.0636H179.834V76.0822Z" fill="white"/>
<path d="M45.1207 0H7.91558C3.54996 0 0 3.55576 0 7.92851V33.2181L26.5181 59.7609L53.0363 33.2181V7.92851C53.0363 3.55576 49.4863 0 45.1207 0ZM26.5181 40.0696C23.8116 40.0696 21.6149 42.2699 21.6149 44.9809V51.294L17.3049 46.9769V22.3465H35.7313V46.9769L31.4213 51.294V44.9809C31.4213 42.2699 29.2246 40.0696 26.5181 40.0696ZM26.5367 12.3848L33.9703 19.8306H19.1123L26.5459 12.3848H26.5367ZM15.5438 19.8306H4.30074L21.5686 2.52524H32.8117L15.5438 19.8213V19.8306ZM2.52112 22.3558H14.7838V27.592H2.52112V22.3558ZM38.2525 24.1198L48.4111 34.295L38.2525 44.461V24.1105V24.1198ZM28.3255 10.6023L36.3802 2.52524H38.373L50.5244 14.6965V32.1783L50.2 32.5032L28.3255 10.593V10.6023ZM50.5151 7.9378V11.1315L41.9415 2.52524H45.1299C48.1052 2.52524 50.5244 4.94836 50.5244 7.92851L50.5151 7.9378ZM7.91558 2.52524H18.0001L2.52112 18.0388V7.92851C2.52112 4.94836 4.94029 2.52524 7.91558 2.52524ZM2.52112 30.1079H14.7838V44.4517L2.52112 32.1783V30.1172V30.1079ZM24.1453 53.8099V44.9716C24.1453 43.6532 25.2112 42.5856 26.5274 42.5856C27.8436 42.5856 28.9095 43.6532 28.9095 44.9716V53.8099L26.5274 56.1959L24.1453 53.8192V53.8099Z" fill="white"/>
<path d="M26.5181 25.5588C23.8116 25.5588 21.6149 27.7591 21.6149 30.47C21.6149 33.1809 23.8116 35.3812 26.5181 35.3812C29.2246 35.3812 31.4213 33.1809 31.4213 30.47C31.4213 27.7591 29.2246 25.5588 26.5181 25.5588ZM26.5181 32.8467C25.202 32.8467 24.136 31.779 24.136 30.4607C24.136 29.1424 25.202 28.0747 26.5181 28.0747C27.8343 28.0747 28.9002 29.1424 28.9002 30.4607C28.9002 31.779 27.8343 32.8467 26.5181 32.8467Z" fill="white"/>
<path d="M52.3318 53.1879C51.9055 53.0115 51.4142 53.1043 51.0898 53.4386L26.5645 78.0225C26.2401 78.3475 26.1381 78.8395 26.3142 79.2666C26.4903 79.6936 26.9074 79.9722 27.3709 79.9722H51.8962C52.5265 79.9722 53.0363 79.4615 53.0363 78.8302V54.2463C53.0363 53.7821 52.7582 53.3643 52.3318 53.1879ZM51.8962 78.9695H27.3709C27.2967 78.9695 27.2596 78.9231 27.2504 78.8859C27.2318 78.8488 27.2318 78.7931 27.2782 78.7374L51.8035 54.1534C51.8035 54.1534 51.8684 54.1163 51.8962 54.1163C51.9147 54.1163 51.9333 54.1163 51.9518 54.1256C51.9889 54.1441 52.0352 54.172 52.0352 54.2463V57.7742H49.9868C49.7087 57.7742 49.4863 57.997 49.4863 58.2755C49.4863 58.554 49.7087 58.7769 49.9868 58.7769H52.0352V59.5753H50.8766C50.5986 59.5753 50.3761 59.7981 50.3761 60.0766C50.3761 60.3551 50.5986 60.5779 50.8766 60.5779H52.0352V61.3764H49.9868C49.7087 61.3764 49.4863 61.5992 49.4863 61.8777C49.4863 62.1562 49.7087 62.379 49.9868 62.379H52.0352V63.1775H50.8766C50.5986 63.1775 50.3761 63.4003 50.3761 63.6788C50.3761 63.9573 50.5986 64.1801 50.8766 64.1801H52.0352V64.9785H49.9868C49.7087 64.9785 49.4863 65.2014 49.4863 65.4799C49.4863 65.7584 49.7087 65.9812 49.9868 65.9812H52.0352V66.7796H50.8766C50.5986 66.7796 50.3761 67.0025 50.3761 67.281C50.3761 67.5595 50.5986 67.7823 50.8766 67.7823H52.0352V68.5807H49.9868C49.7087 68.5807 49.4863 68.8035 49.4863 69.0821C49.4863 69.3606 49.7087 69.5834 49.9868 69.5834H52.0352V70.3818H50.8766C50.5986 70.3818 50.3761 70.6046 50.3761 70.8832C50.3761 71.1617 50.5986 71.3845 50.8766 71.3845H52.0352V72.1829H49.9868C49.7087 72.1829 49.4863 72.4057 49.4863 72.6842C49.4863 72.9628 49.7087 73.1856 49.9868 73.1856H52.0352V73.984H50.8766C50.5986 73.984 50.3761 74.2068 50.3761 74.4853C50.3761 74.7639 50.5986 74.9867 50.8766 74.9867H52.0352V75.7851H49.9868C49.7087 75.7851 49.4863 76.0079 49.4863 76.2864C49.4863 76.5649 49.7087 76.7878 49.9868 76.7878H52.0352V78.7281C52.0352 78.8024 51.9796 78.8581 51.9055 78.8581L51.8962 78.9695Z" fill="white"/>
<path d="M46.8354 65.9069C46.5759 65.7955 46.2793 65.8605 46.0846 66.0555L39.0125 73.1484C38.8179 73.3434 38.753 73.6405 38.8642 73.9004C38.9754 74.1604 39.2164 74.3275 39.5038 74.3275H46.5759C46.9559 74.3275 47.2618 74.0211 47.2618 73.6405V66.5475C47.2618 66.269 47.0949 66.0183 46.8354 65.9069ZM46.2515 73.3155H40.2731L46.2515 67.3181V73.3155Z" fill="white"/>
<path d="M7.64679 64.6536H1.06592V62.8154H2.38209C2.67869 62.8154 2.91041 62.574 2.91041 62.2862C2.91041 61.9984 2.66942 61.757 2.38209 61.757H0.528323C0.24099 61.7477 0 61.9891 0 62.2862V77.1777C0 78.7188 1.25129 79.9721 2.78992 79.9721H12.5037C14.0423 79.9721 15.2936 78.7188 15.2936 77.1777V72.3129C15.2936 68.0886 11.8641 64.6536 7.64679 64.6536ZM14.2277 77.1684C14.2277 78.1246 13.4491 78.9045 12.4944 78.9045H2.78992C1.83523 78.9045 1.05665 78.1246 1.05665 77.1684V65.7119H7.63752C11.2709 65.7119 14.2184 68.6735 14.2184 72.3036V77.1684H14.2277Z" fill="white"/>
<path d="M7.64679 68.1258C5.33885 68.1258 3.46655 70.0012 3.46655 72.3129C3.46655 74.6246 5.33885 76.4999 7.64679 76.4999C9.95473 76.4999 11.827 74.6246 11.827 72.3129C11.827 70.0012 9.95473 68.1258 7.64679 68.1258ZM7.64679 75.4416C5.92279 75.4416 4.53246 74.0397 4.53246 72.3222C4.53246 70.6046 5.93205 69.2027 7.64679 69.2027C9.36152 69.2027 10.7611 70.6046 10.7611 72.3222C10.7611 74.0397 9.36152 75.4416 7.64679 75.4416Z" fill="white"/>
<path d="M23.478 61.7291L5.8023 44.0153C5.32959 43.5418 4.55101 43.5418 4.07829 44.0153L0.370762 47.7289C0.139041 47.961 0.00927734 48.2674 0.00927734 48.5923C0.00927734 48.9173 0.139041 49.2236 0.370762 49.4557L18.0464 67.1603C18.2874 67.4017 18.5933 67.5131 18.9084 67.5131C19.2236 67.5131 19.5294 67.3924 19.7704 67.1603L23.478 63.4467C23.7097 63.2146 23.8394 62.9082 23.8394 62.5833C23.8394 62.2583 23.7097 61.952 23.478 61.7199V61.7291ZM22.7643 62.7411L19.0567 66.4547C18.9733 66.5383 18.8435 66.5383 18.7601 66.4547L1.08446 48.7409C1.02885 48.6852 1.01958 48.6202 1.01958 48.5923C1.01958 48.5645 1.01958 48.4995 1.08446 48.4438L4.79199 44.7302C4.79199 44.7302 4.88468 44.6652 4.9403 44.6652C4.99591 44.6652 5.05152 44.6838 5.0886 44.7302L5.93206 45.575L4.47685 47.0326C4.3749 47.1347 4.32855 47.2647 4.32855 47.3854C4.32855 47.5061 4.3749 47.6454 4.47685 47.7382C4.57881 47.831 4.70858 47.8867 4.82907 47.8867C4.94957 47.8867 5.0886 47.8403 5.18129 47.7382L6.63649 46.2806L7.13701 46.782L6.31208 47.6082C6.21013 47.7104 6.16378 47.8403 6.16378 47.961C6.16378 48.0817 6.21013 48.221 6.31208 48.3138C6.41404 48.4067 6.5438 48.4624 6.6643 48.4624C6.78479 48.4624 6.92383 48.4159 7.01651 48.3138L7.84144 47.4875L8.40684 48.0539L6.95163 49.5114C6.84968 49.6136 6.80333 49.7435 6.80333 49.8735C6.80333 50.0035 6.84968 50.1335 6.95163 50.2263C7.05359 50.3284 7.18335 50.3749 7.30385 50.3749C7.42434 50.3749 7.56338 50.3284 7.66533 50.2263L9.12054 48.7687L9.68594 49.335L8.86101 50.1613C8.75906 50.2634 8.71271 50.3934 8.71271 50.5141C8.71271 50.6348 8.75906 50.7741 8.86101 50.8669C8.96297 50.9597 9.09273 51.0154 9.21323 51.0154C9.33372 51.0154 9.47276 50.969 9.56544 50.8669L10.3904 50.0406L10.9558 50.6069L9.50056 52.0645C9.3986 52.1667 9.35226 52.2966 9.35226 52.4173C9.35226 52.538 9.3986 52.6773 9.50056 52.7794C9.60252 52.8815 9.73228 52.9279 9.86205 52.9279C9.99181 52.9279 10.1216 52.8815 10.2143 52.7794L11.6695 51.3218L12.2349 51.8881L11.4099 52.7144C11.308 52.8165 11.2616 52.9465 11.2616 53.0672C11.2616 53.1879 11.308 53.3272 11.4099 53.42C11.5119 53.5128 11.6417 53.5685 11.7622 53.5685C11.8827 53.5685 12.0217 53.5221 12.1144 53.42L12.9393 52.5937L13.5047 53.16L12.0495 54.6176C11.9475 54.7198 11.9012 54.8497 11.9012 54.9704C11.9012 55.0911 11.9475 55.2304 12.0495 55.3325C12.1514 55.4346 12.2812 55.481 12.411 55.481C12.5407 55.481 12.6705 55.4346 12.7632 55.3325L14.2184 53.8749L14.7838 54.4412L13.9589 55.2675C13.8569 55.3696 13.8106 55.4996 13.8106 55.6203C13.8106 55.741 13.8569 55.8802 13.9589 55.9731C14.0608 56.0659 14.1906 56.1216 14.3111 56.1216C14.4316 56.1216 14.5706 56.0752 14.6633 55.9731L15.4882 55.1468L16.0536 55.7131L14.5984 57.1707C14.4965 57.2728 14.4501 57.4028 14.4501 57.5235C14.4501 57.6442 14.4965 57.7835 14.5984 57.8763C14.7004 57.9691 14.8301 58.0248 14.9506 58.0248C15.0711 58.0248 15.2102 57.9784 15.3029 57.8763L16.7581 56.4187L17.3235 56.985L16.4985 57.8113C16.3966 57.9134 16.3502 58.0434 16.3502 58.1641C16.3502 58.2848 16.3966 58.4241 16.4985 58.5169C16.6005 58.619 16.7303 58.6654 16.8507 58.6654C16.9712 58.6654 17.1103 58.619 17.2122 58.5169L18.0372 57.6906L18.6026 58.2569L17.1473 59.7145C17.0454 59.8167 16.999 59.9466 16.999 60.0673C16.999 60.188 17.0454 60.3273 17.1473 60.4201C17.2493 60.513 17.3791 60.5687 17.4996 60.5687C17.6201 60.5687 17.7591 60.5222 17.8518 60.4201L19.307 58.9625L19.8724 59.5289L19.0475 60.3551C18.9455 60.4572 18.8992 60.5872 18.8992 60.7079C18.8992 60.8286 18.9455 60.9679 19.0475 61.0607C19.1494 61.1628 19.2792 61.2092 19.3997 61.2092C19.5202 61.2092 19.6592 61.1628 19.7612 61.0607L20.5861 60.2344L21.1515 60.8008L19.6963 62.2583C19.5943 62.3605 19.548 62.4904 19.548 62.6111C19.548 62.7318 19.5943 62.8711 19.6963 62.9639C19.7982 63.0568 19.928 63.1125 20.0485 63.1125C20.169 63.1125 20.308 63.066 20.4007 62.9639L21.8559 61.5063L22.6994 62.3512C22.755 62.4069 22.7643 62.4719 22.7643 62.4997C22.7643 62.5276 22.7643 62.5926 22.6994 62.6483L22.7643 62.7411Z" fill="white"/>
<path d="M52.2947 45.6679L50.4224 43.7925C49.6624 43.0312 48.4389 43.0312 47.6789 43.7925L44.926 46.5498C44.5831 46.8933 44.5831 47.4597 44.926 47.8125C45.0465 47.9331 45.1948 48.0167 45.3709 48.0538H45.4358C45.5007 48.091 45.5656 48.1281 45.6212 48.1838C45.788 48.3509 45.788 48.6202 45.6212 48.7873L45.3709 49.0379L38.6047 55.8152C37.9466 55.611 37.2514 55.6853 36.649 56.0102C36.547 55.9731 36.4265 55.9545 36.3153 55.9731C36.1392 55.9916 35.9631 56.0752 35.824 56.2145L35.1196 56.92C34.962 57.0779 34.8786 57.2821 34.8786 57.4956C34.8786 57.6906 34.9528 57.867 35.0825 57.997L38.1042 61.0236C38.2432 61.1628 38.4193 61.2278 38.6047 61.2278C38.8086 61.2278 39.0125 61.1442 39.1794 60.9864L39.8838 60.2808C40.0135 60.1509 40.1062 59.9745 40.1248 59.7888C40.134 59.6681 40.1248 59.5567 40.0877 59.4546C40.4121 58.8511 40.4863 58.1455 40.2823 57.4956L46.6964 51.0711L47.0486 50.7183L47.2988 50.4677C47.3823 50.3841 47.4935 50.3563 47.6047 50.347C47.7159 50.347 47.8272 50.3934 47.9106 50.477C47.9755 50.5419 48.0126 50.6162 48.0311 50.6905L48.0589 50.8483L48.0774 50.8669C48.1238 50.9783 48.1887 51.0804 48.2721 51.164C48.4389 51.3311 48.6614 51.4239 48.9024 51.4239C49.1433 51.4239 49.3658 51.3311 49.5326 51.164L52.2855 48.4066C53.0363 47.6546 53.0363 46.4199 52.2855 45.6679H52.2947ZM38.5305 56.8643C38.6788 56.9293 38.8271 57.0314 38.9476 57.1614C39.0681 57.2914 39.1701 57.4307 39.2442 57.5885C39.4018 57.9227 39.4296 58.2848 39.3462 58.619L37.4924 56.7622C37.8261 56.6786 38.1969 56.7065 38.5213 56.8643H38.5305ZM38.6325 60.1137L36.0094 57.4864L36.3987 57.0964L39.0218 59.7238L38.6325 60.1137ZM39.7818 56.5858C39.7818 56.5858 39.7077 56.493 39.6706 56.4558C39.6243 56.4094 39.5779 56.3816 39.5316 56.3444L45.7417 50.1242L45.9919 50.3748L39.7818 56.5951V56.5858ZM51.5903 47.701L48.9858 50.3098C48.9116 50.1056 48.8004 49.9199 48.6428 49.7621C48.374 49.4929 48.0033 49.335 47.6233 49.335C47.2896 49.335 46.9744 49.4464 46.7242 49.6507L46.4647 49.3907C46.6686 49.1401 46.7891 48.8151 46.7891 48.4809C46.7891 48.091 46.6408 47.7382 46.372 47.4597C46.2144 47.3018 46.0198 47.1811 45.8158 47.1069L48.4204 44.4981C48.7819 44.136 49.3751 44.136 49.7366 44.4981L51.6089 46.3734C51.785 46.5498 51.8777 46.7819 51.8777 47.0326C51.8777 47.2833 51.785 47.5154 51.6089 47.6918L51.5903 47.701Z" fill="white"/>
<path d="M34.3781 61.887C34.2391 61.7477 34.0444 61.7013 33.859 61.7663L29.4656 63.2331C29.4656 63.2331 29.4471 63.2517 29.4378 63.2517C29.3822 63.2796 29.3266 63.3074 29.2895 63.3446C29.2895 63.3446 29.2802 63.3445 29.271 63.3538L19.3255 73.3155C18.3152 74.3275 18.3152 75.9615 19.3255 76.9734C19.8168 77.4655 20.4656 77.7347 21.1515 77.7347C21.8374 77.7347 22.4862 77.4655 22.9774 76.9734L32.9229 67.0117C32.9229 67.0117 32.9229 66.9932 32.9414 66.9932C32.9878 66.9467 33.0156 66.891 33.0434 66.8353C33.0434 66.8353 33.0434 66.8353 33.0434 66.826L34.5079 62.4162C34.5727 62.2305 34.5171 62.0355 34.3874 61.8963L34.3781 61.887ZM23.6633 74.8474L21.4388 72.6192L29.3822 64.6629L29.7437 65.8141L24.2751 71.2916C24.0804 71.4866 24.0804 71.8115 24.2751 72.0065C24.377 72.1086 24.5068 72.155 24.6273 72.155C24.7478 72.155 24.8868 72.1086 24.9795 72.0065L30.4481 66.529L31.5974 66.891L23.6541 74.8474H23.6633ZM20.0207 76.2678C19.4089 75.6551 19.4089 74.6524 20.0207 74.0397L20.7251 73.3341L22.9496 75.5623L22.2452 76.2678C21.652 76.862 20.6139 76.862 20.0207 76.2678ZM32.2277 66.0369L30.7169 65.5634L30.2442 64.0501L33.2195 63.0567L32.2277 66.0462V66.0369Z" fill="white"/>
</g>
<defs>
<clipPath id="clip0_2305_6050">
<rect width="183.291" height="80" fill="white"/>
</clipPath>
</defs>
</svg>
